<svg xmlns="http://www.w3.org/2000/svg" xmlns:xlink="http://www.w3.org/1999/xlink" width="755" zoomAndPan="magnify" viewBox="0 0 567 567.000005" height="755" preserveAspectRatio="xMidYMid meet" version="1.0"><defs><clipPath id="abd8c14f9f"><path d="M 168.644531 168.144531 L 398.488281 168.144531 L 398.488281 397.988281 L 168.644531 397.988281 Z M 168.644531 168.144531 " clip-rule="nonzero"/></clipPath></defs><g clip-path="url(#abd8c14f9f)"><path fill="#38b6ff" d="M 391.390625 188.390625 L 391.390625 181.917969 L 382.210938 181.917969 L 382.210938 175.03125 L 366.234375 175.03125 L 366.234375 168.144531 L 350.210938 168.144531 L 350.210938 174.941406 L 343.507812 174.941406 L 343.507812 168.144531 L 327.488281 168.144531 L 327.488281 174.941406 L 320.785156 174.941406 L 320.785156 168.144531 L 305.039062 168.144531 L 305.039062 174.941406 L 298.289062 174.941406 L 298.289062 168.144531 L 282.269531 168.144531 L 282.269531 174.941406 L 275.566406 174.941406 L 275.566406 168.144531 L 259.589844 168.144531 L 259.589844 174.941406 L 252.839844 174.941406 L 252.839844 168.144531 L 236.816406 168.144531 L 236.816406 174.941406 L 230.023438 174.941406 L 230.023438 181.597656 L 220.980469 181.597656 L 220.980469 197.617188 L 214.140625 197.617188 L 214.140625 211.300781 L 205.050781 211.300781 L 205.050781 227.273438 L 209.59375 227.273438 L 209.59375 227.230469 L 214.183594 227.230469 L 214.183594 211.34375 L 223.273438 211.34375 L 223.273438 197.617188 L 230.117188 197.617188 L 230.117188 181.78125 L 236.863281 181.78125 L 236.863281 174.984375 L 241.410156 174.984375 L 241.410156 174.941406 L 243.703125 174.941406 L 243.703125 181.78125 L 236.863281 181.78125 L 236.863281 188.621094 L 243.75 188.621094 L 243.75 181.824219 L 259.589844 181.824219 L 259.589844 188.621094 L 266.429688 188.621094 L 266.429688 181.824219 L 282.3125 181.824219 L 282.3125 188.621094 L 289.199219 188.621094 L 289.199219 181.824219 L 305.039062 181.824219 L 305.039062 188.621094 L 311.878906 188.621094 L 311.878906 181.824219 L 327.761719 181.824219 L 327.761719 188.621094 L 334.648438 188.621094 L 334.648438 181.824219 L 350.488281 181.824219 L 350.488281 188.621094 L 357.375 188.621094 L 357.375 181.917969 L 375.554688 181.917969 L 375.554688 188.390625 L 366.464844 188.390625 L 366.464844 204.597656 L 359.625 204.597656 L 359.625 220.617188 L 352.738281 220.617188 L 352.738281 235.445312 L 344.335938 235.445312 L 344.335938 249.171875 L 335.199219 249.171875 L 335.199219 265.195312 L 328.3125 265.195312 L 328.3125 283.46875 L 321.425781 283.46875 L 321.425781 297.195312 L 314.585938 297.195312 L 314.585938 310.921875 L 177.550781 310.921875 L 177.550781 288.058594 L 184.4375 288.058594 L 184.4375 274.332031 L 191.277344 274.332031 L 191.277344 258.308594 L 198.117188 258.308594 L 198.117188 242.332031 L 205.003906 242.332031 L 205.003906 226.265625 L 195.820312 226.265625 L 195.820312 242.332031 L 188.980469 242.332031 L 188.980469 258.308594 L 182.140625 258.308594 L 182.140625 274.332031 L 175.253906 274.332031 L 175.253906 288.058594 L 168.691406 288.058594 L 168.691406 313.167969 L 175.53125 313.167969 L 175.53125 320.054688 L 228.140625 320.054688 L 228.140625 374.917969 L 234.980469 374.917969 L 234.980469 384.050781 L 244.164062 384.050781 L 244.164062 390.894531 L 253.300781 390.894531 L 253.300781 397.777344 L 383.679688 397.777344 L 383.679688 393.1875 L 392.859375 393.1875 L 392.859375 385.246094 L 398.230469 385.246094 L 398.230469 188.390625 Z M 266.429688 177.234375 L 266.429688 181.78125 L 259.726562 181.78125 L 259.726562 174.984375 L 264.132812 174.984375 L 264.132812 174.941406 L 266.429688 174.941406 Z M 284.609375 181.78125 L 282.453125 181.78125 L 282.453125 174.984375 L 286.859375 174.984375 L 286.859375 174.941406 L 289.152344 174.941406 L 289.152344 181.78125 Z M 311.878906 177.234375 L 311.878906 181.78125 L 305.175781 181.78125 L 305.175781 174.984375 L 309.582031 174.984375 L 309.582031 174.941406 L 311.878906 174.941406 Z M 330.058594 181.78125 L 327.902344 181.78125 L 327.902344 174.984375 L 332.308594 174.984375 L 332.308594 174.941406 L 334.601562 174.941406 L 334.601562 181.78125 Z M 352.78125 181.78125 L 350.578125 181.78125 L 350.578125 175.03125 L 355.03125 175.03125 L 355.03125 174.984375 L 357.328125 174.984375 L 357.328125 181.734375 L 352.78125 181.734375 Z M 386.847656 384.050781 L 382.257812 384.050781 L 382.257812 388.644531 L 252.703125 388.644531 L 252.703125 381.757812 L 243.566406 381.757812 L 243.566406 374.917969 L 236.679688 374.917969 L 236.679688 320.054688 L 314.496094 320.054688 L 314.496094 313.171875 L 323.632812 313.171875 L 323.632812 297.195312 L 330.515625 297.195312 L 330.515625 283.46875 L 337.402344 283.46875 L 337.402344 265.195312 L 344.242188 265.195312 L 344.242188 251.46875 L 353.378906 251.46875 L 353.378906 236.640625 L 361.78125 236.640625 L 361.78125 220.617188 L 368.667969 220.617188 L 368.667969 204.414062 L 375.507812 204.414062 L 375.507812 188.804688 L 391.390625 188.804688 L 391.390625 384.050781 Z M 248.15625 222.730469 L 245.863281 222.730469 L 245.863281 213.59375 L 321.425781 213.59375 L 321.425781 222.683594 L 250.5 222.683594 L 250.5 222.730469 Z M 245.863281 227.136719 L 314.632812 227.136719 L 314.632812 236.320312 L 236.679688 236.320312 L 236.679688 227.136719 Z M 245.863281 227.136719 " fill-opacity="1" fill-rule="nonzero"/></g><path fill="#facee1" d="M 368.667969 181.78125 L 357.234375 181.78125 L 357.234375 188.621094 L 350.351562 188.621094 L 350.351562 181.78125 L 334.375 181.78125 L 334.375 188.621094 L 327.488281 188.621094 L 327.488281 181.78125 L 311.464844 181.78125 L 311.464844 188.621094 L 305.039062 188.621094 L 305.039062 181.78125 L 289.015625 181.78125 L 289.015625 188.621094 L 282.128906 188.621094 L 282.128906 181.78125 L 266.109375 181.78125 L 266.109375 188.621094 L 259.589844 188.621094 L 259.589844 181.78125 L 243.566406 181.78125 L 243.566406 188.621094 L 236.679688 188.621094 L 236.679688 181.78125 L 229.792969 181.78125 L 229.792969 197.800781 L 222.953125 197.800781 L 222.953125 211.34375 L 214.140625 211.34375 L 214.140625 227.183594 L 205.003906 227.183594 L 205.003906 242.332031 L 198.117188 242.332031 L 198.117188 258.308594 L 191.277344 258.308594 L 191.277344 274.332031 L 184.4375 274.332031 L 184.4375 288.058594 L 177.550781 288.058594 L 177.550781 312.160156 L 314.816406 312.160156 L 314.816406 298.433594 L 321.65625 298.433594 L 321.65625 284.707031 L 328.542969 284.707031 L 328.542969 266.433594 L 335.429688 266.433594 L 335.429688 250.414062 L 344.566406 250.414062 L 344.566406 236.6875 L 353.699219 236.6875 L 353.699219 220.664062 L 360.585938 220.664062 L 360.585938 204.597656 L 367.429688 204.597656 L 367.429688 188.390625 L 376.5625 188.390625 L 376.5625 181.78125 Z M 314.679688 229.523438 L 314.679688 236.410156 L 236.679688 236.410156 L 236.679688 227.230469 L 314.679688 227.230469 Z M 321.425781 215.84375 L 321.425781 222.730469 L 245.863281 222.730469 L 245.863281 213.59375 L 321.425781 213.59375 Z M 321.425781 215.84375 " fill-opacity="1" fill-rule="nonzero"/><path fill="#888bbc" d="M 384.597656 188.390625 L 384.597656 376.109375 L 377.757812 376.109375 L 377.757812 382.949219 L 243.566406 382.949219 L 243.566406 376.109375 L 369.402344 376.109375 L 369.402344 369.269531 L 375.507812 369.269531 L 375.507812 188.390625 Z M 384.597656 188.390625 " fill-opacity="1" fill-rule="nonzero"/><path fill="#6466af" d="M 391.4375 188.390625 L 391.4375 385.246094 L 382.257812 385.246094 L 382.257812 389.835938 L 252.703125 389.835938 L 252.703125 382.949219 L 377.757812 382.949219 L 377.757812 376.109375 L 384.597656 376.109375 L 384.597656 188.390625 Z M 391.4375 188.390625 " fill-opacity="1" fill-rule="nonzero"/><path fill="#fdf1cc" d="M 375.507812 204.414062 L 375.507812 369.179688 L 369.402344 369.179688 L 369.402344 376.109375 L 363.617188 376.109375 L 363.617188 376.019531 L 236.679688 376.019531 L 236.679688 320.054688 L 314.496094 320.054688 L 314.496094 313.171875 L 323.632812 313.171875 L 323.632812 297.195312 L 330.515625 297.195312 L 330.515625 283.46875 L 337.402344 283.46875 L 337.402344 265.195312 L 344.242188 265.195312 L 344.242188 251.46875 L 353.378906 251.46875 L 353.378906 236.546875 L 361.78125 236.546875 L 361.78125 220.527344 L 368.667969 220.527344 L 368.667969 204.414062 Z M 375.507812 204.414062 " fill-opacity="1" fill-rule="nonzero"/></svg>