<svg xmlns="http://www.w3.org/2000/svg" xmlns:xlink="http://www.w3.org/1999/xlink" width="755" zoomAndPan="magnify" viewBox="0 0 567 567.000005" height="755" preserveAspectRatio="xMidYMid meet" version="1.0"><defs><filter x="0%" y="0%" width="100%" height="100%" id="d3eb79d35d"><feColorMatrix values="0 0 0 0 1 0 0 0 0 1 0 0 0 0 1 0 0 0 1 0" color-interpolation-filters="sRGB"/></filter><clipPath id="d249c3d6de"><path d="M 152 178 L 431.214844 178 L 431.214844 396.542969 L 152 396.542969 Z M 152 178 " clip-rule="nonzero"/></clipPath><mask id="8a88e01f4a"><g filter="url(#d3eb79d35d)"><rect x="-56.7" width="680.4" fill="#000000" y="-56.700001" height="680.400006" fill-opacity="0.3"/></g></mask><clipPath id="c4da41254f"><path d="M 0.871094 0.0078125 L 279.214844 0.0078125 L 279.214844 218.261719 L 0.871094 218.261719 Z M 0.871094 0.0078125 " clip-rule="nonzero"/></clipPath><clipPath id="8179e77ee5"><rect x="0" width="280" y="0" height="219"/></clipPath><clipPath id="a6c11af3cc"><path d="M 135.484375 169.695312 L 415 169.695312 L 415 388 L 135.484375 388 Z M 135.484375 169.695312 " clip-rule="nonzero"/></clipPath><clipPath id="6a3d7beda7"><path d="M 135.484375 169.695312 L 415 169.695312 L 415 388 L 135.484375 388 Z M 135.484375 169.695312 " clip-rule="nonzero"/></clipPath><mask id="c0dc642f63"><g filter="url(#d3eb79d35d)"><rect x="-56.7" width="680.4" fill="#000000" y="-56.700001" height="680.400006" fill-opacity="0.3"/></g></mask><clipPath id="425ed33305"><path d="M 1 0.234375 L 262.863281 0.234375 L 262.863281 148.773438 L 1 148.773438 Z M 1 0.234375 " clip-rule="nonzero"/></clipPath><clipPath id="ced1f84ba2"><rect x="0" width="263" y="0" height="149"/></clipPath><mask id="32cd985ae3"><g filter="url(#d3eb79d35d)"><rect x="-56.7" width="680.4" fill="#000000" y="-56.700001" height="680.400006" fill-opacity="0.5"/></g></mask><clipPath id="167d37aa7b"><path d="M 0.871094 0.0078125 L 253.863281 0.0078125 L 253.863281 200.773438 L 0.871094 200.773438 Z M 0.871094 0.0078125 " clip-rule="nonzero"/></clipPath><clipPath id="c06c3e65c5"><rect x="0" width="254" y="0" height="201"/></clipPath></defs><g clip-path="url(#d249c3d6de)"><g mask="url(#8a88e01f4a)"><g transform="matrix(1, 0, 0, 1, 152, 178)"><g clip-path="url(#8179e77ee5)"><g clip-path="url(#c4da41254f)"><path fill="#000000" d="M 270.734375 44.03125 L 270.734375 35.328125 L 262.027344 35.328125 L 262.027344 26.621094 L 148.871094 26.621094 L 148.871094 17.917969 L 140.167969 17.917969 L 140.167969 9.214844 L 131.460938 9.214844 L 131.460938 0.507812 L 61.828125 0.507812 L 61.828125 9.214844 L 53.121094 9.214844 L 53.121094 17.917969 L 44.417969 17.917969 L 44.417969 26.621094 L 35.714844 26.621094 L 35.714844 70.144531 L 9.597656 70.144531 L 9.597656 78.847656 L 0.894531 78.847656 L 0.894531 104.960938 L 9.597656 104.960938 L 9.597656 131.074219 L 18.304688 131.074219 L 18.304688 157.1875 L 27.007812 157.1875 L 27.007812 183.300781 L 35.714844 183.300781 L 35.714844 209.414062 L 44.417969 209.414062 L 44.417969 218.121094 L 270.734375 218.121094 L 270.734375 209.414062 L 279.4375 209.414062 L 279.4375 44.03125 Z M 270.734375 44.03125 " fill-opacity="1" fill-rule="nonzero"/></g></g></g></g></g><g clip-path="url(#a6c11af3cc)"><path fill="#d1d3d4" d="M 405.324219 213.328125 L 405.324219 204.621094 L 396.621094 204.621094 L 396.621094 195.917969 L 283.460938 195.917969 L 283.460938 187.214844 L 274.757812 187.214844 L 274.757812 178.507812 L 266.054688 178.507812 L 266.054688 169.804688 L 196.417969 169.804688 L 196.417969 178.507812 L 187.714844 178.507812 L 187.714844 187.214844 L 179.007812 187.214844 L 179.007812 195.917969 L 170.304688 195.917969 L 170.304688 239.441406 L 144.191406 239.441406 L 144.191406 248.144531 L 135.484375 248.144531 L 135.484375 274.257812 L 144.191406 274.257812 L 144.191406 300.371094 L 152.894531 300.371094 L 152.894531 326.484375 L 161.597656 326.484375 L 161.597656 352.597656 L 170.304688 352.597656 L 170.304688 378.710938 L 179.007812 378.710938 L 179.007812 387.414062 L 405.324219 387.414062 L 405.324219 378.710938 L 414.027344 378.710938 L 414.027344 213.328125 Z M 405.324219 213.328125 " fill-opacity="1" fill-rule="nonzero"/></g><path fill="#f32a90" d="M 152.894531 248.144531 L 152.894531 256.847656 L 144.191406 256.847656 L 144.191406 248.144531 Z M 170.304688 248.144531 L 161.597656 248.144531 L 161.597656 256.847656 L 170.304688 256.847656 Z M 187.714844 248.144531 L 179.007812 248.144531 L 179.007812 256.847656 L 187.714844 256.847656 Z M 205.121094 248.144531 L 196.417969 248.144531 L 196.417969 256.847656 L 205.121094 256.847656 Z M 222.53125 248.144531 L 213.828125 248.144531 L 213.828125 256.847656 L 222.53125 256.847656 Z M 239.941406 248.144531 L 231.234375 248.144531 L 231.234375 256.847656 L 239.941406 256.847656 Z M 257.347656 248.144531 L 248.644531 248.144531 L 248.644531 256.847656 L 257.347656 256.847656 Z M 274.757812 248.144531 L 266.054688 248.144531 L 266.054688 256.847656 L 274.757812 256.847656 Z M 292.167969 248.144531 L 283.460938 248.144531 L 283.460938 256.847656 L 292.167969 256.847656 Z M 309.574219 248.144531 L 300.871094 248.144531 L 300.871094 256.847656 L 309.574219 256.847656 Z M 326.984375 248.144531 L 318.28125 248.144531 L 318.28125 256.847656 L 326.984375 256.847656 Z M 344.394531 248.144531 L 335.6875 248.144531 L 335.6875 256.847656 L 344.394531 256.847656 Z M 179.007812 239.441406 L 187.714844 239.441406 L 187.714844 230.734375 L 179.007812 230.734375 Z M 196.417969 239.441406 L 205.121094 239.441406 L 205.121094 230.734375 L 196.417969 230.734375 Z M 213.828125 239.441406 L 222.53125 239.441406 L 222.53125 230.734375 L 213.828125 230.734375 Z M 231.234375 239.441406 L 239.941406 239.441406 L 239.941406 230.734375 L 231.234375 230.734375 Z M 248.644531 239.441406 L 257.347656 239.441406 L 257.347656 230.734375 L 248.644531 230.734375 Z M 266.054688 239.441406 L 274.757812 239.441406 L 274.757812 230.734375 L 266.054688 230.734375 Z M 283.460938 239.441406 L 292.167969 239.441406 L 292.167969 230.734375 L 283.460938 230.734375 Z M 300.871094 239.441406 L 309.574219 239.441406 L 309.574219 230.734375 L 300.871094 230.734375 Z M 318.28125 239.441406 L 326.984375 239.441406 L 326.984375 230.734375 L 318.28125 230.734375 Z M 335.6875 239.441406 L 344.394531 239.441406 L 344.394531 230.734375 L 335.6875 230.734375 Z M 353.097656 230.734375 L 353.097656 239.441406 L 361.800781 239.441406 L 361.800781 230.734375 Z M 370.507812 230.734375 L 370.507812 239.441406 L 379.210938 239.441406 L 379.210938 230.734375 Z M 387.914062 230.734375 L 387.914062 239.441406 L 396.621094 239.441406 L 396.621094 230.734375 Z M 187.714844 222.03125 L 187.714844 230.734375 L 196.417969 230.734375 L 196.417969 222.03125 Z M 205.121094 222.03125 L 205.121094 230.734375 L 213.828125 230.734375 L 213.828125 222.03125 Z M 222.53125 222.03125 L 222.53125 230.734375 L 231.234375 230.734375 L 231.234375 222.03125 Z M 239.941406 222.03125 L 239.941406 230.734375 L 248.644531 230.734375 L 248.644531 222.03125 Z M 257.347656 222.03125 L 257.347656 230.734375 L 266.054688 230.734375 L 266.054688 222.03125 Z M 274.757812 222.03125 L 274.757812 230.734375 L 283.460938 230.734375 L 283.460938 222.03125 Z M 292.167969 222.03125 L 292.167969 230.734375 L 300.871094 230.734375 L 300.871094 222.03125 Z M 309.574219 222.03125 L 309.574219 230.734375 L 318.28125 230.734375 L 318.28125 222.03125 Z M 326.984375 222.03125 L 326.984375 230.734375 L 335.6875 230.734375 L 335.6875 222.03125 Z M 344.394531 222.03125 L 344.394531 230.734375 L 353.097656 230.734375 L 353.097656 222.03125 Z M 361.800781 222.03125 L 361.800781 230.734375 L 370.507812 230.734375 L 370.507812 222.03125 Z M 379.210938 222.03125 L 379.210938 230.734375 L 387.914062 230.734375 L 387.914062 222.03125 Z M 396.621094 222.03125 L 396.621094 213.328125 L 387.914062 213.328125 L 387.914062 222.03125 Z M 405.324219 230.734375 L 405.324219 222.03125 L 396.621094 222.03125 L 396.621094 230.734375 Z M 361.800781 239.441406 L 361.800781 248.144531 L 370.507812 248.144531 L 370.507812 239.441406 Z M 379.210938 248.144531 L 387.914062 248.144531 L 387.914062 239.441406 L 379.210938 239.441406 Z M 379.210938 248.144531 L 370.507812 248.144531 L 370.507812 256.847656 L 379.210938 256.847656 Z M 387.914062 256.847656 L 396.621094 256.847656 L 396.621094 248.144531 L 387.914062 248.144531 Z M 361.800781 256.847656 L 361.800781 265.554688 L 370.507812 265.554688 L 370.507812 256.847656 Z M 379.210938 265.554688 L 387.914062 265.554688 L 387.914062 256.847656 L 379.210938 256.847656 Z M 370.507812 265.554688 L 370.507812 274.257812 L 379.210938 274.257812 L 379.210938 265.554688 Z M 387.914062 274.257812 L 396.621094 274.257812 L 396.621094 265.554688 L 387.914062 265.554688 Z M 370.507812 282.960938 L 370.507812 291.667969 L 379.210938 291.667969 L 379.210938 282.960938 Z M 387.914062 274.257812 L 379.210938 274.257812 L 379.210938 282.960938 L 387.914062 282.960938 Z M 387.914062 291.667969 L 396.621094 291.667969 L 396.621094 282.960938 L 387.914062 282.960938 Z M 405.324219 282.960938 L 405.324219 274.257812 L 396.621094 274.257812 L 396.621094 282.960938 Z M 405.324219 265.554688 L 405.324219 256.847656 L 396.621094 256.847656 L 396.621094 265.554688 Z M 405.324219 248.144531 L 405.324219 239.441406 L 396.621094 239.441406 L 396.621094 248.144531 Z M 379.210938 291.667969 L 379.210938 300.371094 L 387.914062 300.371094 L 387.914062 291.667969 Z M 387.914062 309.074219 L 396.621094 309.074219 L 396.621094 300.371094 L 387.914062 300.371094 Z M 387.914062 326.484375 L 396.621094 326.484375 L 396.621094 317.78125 L 387.914062 317.78125 Z M 405.324219 300.371094 L 405.324219 291.667969 L 396.621094 291.667969 L 396.621094 300.371094 Z M 379.210938 309.074219 L 379.210938 317.78125 L 387.914062 317.78125 L 387.914062 309.074219 Z M 405.324219 317.78125 L 405.324219 309.074219 L 396.621094 309.074219 L 396.621094 317.78125 Z M 387.914062 343.894531 L 396.621094 343.894531 L 396.621094 335.1875 L 387.914062 335.1875 Z M 405.324219 352.597656 L 405.324219 343.894531 L 396.621094 343.894531 L 396.621094 352.597656 Z M 396.621094 370.007812 L 405.324219 370.007812 L 405.324219 361.300781 L 396.621094 361.300781 Z M 405.324219 335.1875 L 405.324219 326.484375 L 396.621094 326.484375 L 396.621094 335.1875 Z M 179.007812 213.328125 L 179.007812 222.03125 L 187.714844 222.03125 L 187.714844 213.328125 Z M 196.417969 213.328125 L 196.417969 222.03125 L 205.121094 222.03125 L 205.121094 213.328125 Z M 213.828125 213.328125 L 213.828125 222.03125 L 222.53125 222.03125 L 222.53125 213.328125 Z M 231.234375 213.328125 L 231.234375 222.03125 L 239.941406 222.03125 L 239.941406 213.328125 Z M 248.644531 213.328125 L 248.644531 222.03125 L 257.347656 222.03125 L 257.347656 213.328125 Z M 266.054688 213.328125 L 266.054688 222.03125 L 274.757812 222.03125 L 274.757812 213.328125 Z M 292.167969 222.03125 L 292.167969 213.328125 L 283.460938 213.328125 L 283.460938 222.03125 Z M 309.574219 222.03125 L 309.574219 213.328125 L 300.871094 213.328125 L 300.871094 222.03125 Z M 326.984375 222.03125 L 326.984375 213.328125 L 318.28125 213.328125 L 318.28125 222.03125 Z M 344.394531 222.03125 L 344.394531 213.328125 L 335.6875 213.328125 L 335.6875 222.03125 Z M 361.800781 222.03125 L 361.800781 213.328125 L 353.097656 213.328125 L 353.097656 222.03125 Z M 379.210938 222.03125 L 379.210938 213.328125 L 370.507812 213.328125 L 370.507812 222.03125 Z M 196.417969 204.621094 L 187.714844 204.621094 L 187.714844 213.328125 L 196.417969 213.328125 Z M 196.417969 187.214844 L 187.714844 187.214844 L 187.714844 195.917969 L 196.417969 195.917969 Z M 205.121094 204.621094 L 205.121094 213.328125 L 213.828125 213.328125 L 213.828125 204.621094 Z M 222.53125 204.621094 L 222.53125 213.328125 L 231.234375 213.328125 L 231.234375 204.621094 Z M 239.941406 204.621094 L 239.941406 213.328125 L 248.644531 213.328125 L 248.644531 204.621094 Z M 266.054688 213.328125 L 266.054688 204.621094 L 257.347656 204.621094 L 257.347656 213.328125 Z M 205.121094 195.917969 L 196.417969 195.917969 L 196.417969 204.621094 L 205.121094 204.621094 Z M 179.007812 195.917969 L 179.007812 204.621094 L 187.714844 204.621094 L 187.714844 195.917969 Z M 222.53125 204.621094 L 222.53125 195.917969 L 213.828125 195.917969 L 213.828125 204.621094 Z M 239.941406 204.621094 L 239.941406 195.917969 L 231.234375 195.917969 L 231.234375 204.621094 Z M 257.347656 204.621094 L 257.347656 195.917969 L 248.644531 195.917969 L 248.644531 204.621094 Z M 213.828125 195.917969 L 213.828125 187.214844 L 205.121094 187.214844 L 205.121094 195.917969 Z M 231.234375 195.917969 L 231.234375 187.214844 L 222.53125 187.214844 L 222.53125 195.917969 Z M 248.644531 195.917969 L 248.644531 187.214844 L 239.941406 187.214844 L 239.941406 195.917969 Z M 205.121094 178.507812 L 196.417969 178.507812 L 196.417969 187.214844 L 205.121094 187.214844 Z M 222.53125 178.507812 L 213.828125 178.507812 L 213.828125 187.214844 L 222.53125 187.214844 Z M 239.941406 178.507812 L 231.234375 178.507812 L 231.234375 187.214844 L 239.941406 187.214844 Z M 266.054688 195.917969 L 266.054688 187.214844 L 257.347656 187.214844 L 257.347656 195.917969 Z M 274.757812 204.621094 L 274.757812 195.917969 L 266.054688 195.917969 L 266.054688 204.621094 Z M 257.347656 178.507812 L 248.644531 178.507812 L 248.644531 187.214844 L 257.347656 187.214844 Z M 283.460938 213.328125 L 283.460938 204.621094 L 274.757812 204.621094 L 274.757812 213.328125 Z M 300.871094 204.621094 L 292.167969 204.621094 L 292.167969 213.328125 L 300.871094 213.328125 Z M 318.28125 204.621094 L 309.574219 204.621094 L 309.574219 213.328125 L 318.28125 213.328125 Z M 335.6875 204.621094 L 326.984375 204.621094 L 326.984375 213.328125 L 335.6875 213.328125 Z M 353.097656 204.621094 L 344.394531 204.621094 L 344.394531 213.328125 L 353.097656 213.328125 Z M 370.507812 204.621094 L 361.800781 204.621094 L 361.800781 213.328125 L 370.507812 213.328125 Z M 387.914062 204.621094 L 379.210938 204.621094 L 379.210938 213.328125 L 387.914062 213.328125 Z M 353.097656 265.554688 L 353.097656 256.847656 L 344.394531 256.847656 L 344.394531 265.554688 Z M 335.6875 265.554688 L 335.6875 256.847656 L 326.984375 256.847656 L 326.984375 265.554688 Z M 318.28125 265.554688 L 318.28125 256.847656 L 309.574219 256.847656 L 309.574219 265.554688 Z M 300.871094 265.554688 L 300.871094 256.847656 L 292.167969 256.847656 L 292.167969 265.554688 Z M 283.460938 265.554688 L 283.460938 256.847656 L 274.757812 256.847656 L 274.757812 265.554688 Z M 266.054688 265.554688 L 266.054688 256.847656 L 257.347656 256.847656 L 257.347656 265.554688 Z M 248.644531 265.554688 L 248.644531 256.847656 L 239.941406 256.847656 L 239.941406 265.554688 Z M 231.234375 265.554688 L 231.234375 256.847656 L 222.53125 256.847656 L 222.53125 265.554688 Z M 213.828125 265.554688 L 213.828125 256.847656 L 205.121094 256.847656 L 205.121094 265.554688 Z M 196.417969 265.554688 L 196.417969 256.847656 L 187.714844 256.847656 L 187.714844 265.554688 Z M 179.007812 265.554688 L 179.007812 256.847656 L 170.304688 256.847656 L 170.304688 265.554688 Z M 161.597656 256.847656 L 152.894531 256.847656 L 152.894531 265.554688 L 161.597656 265.554688 Z M 144.191406 265.554688 L 144.191406 274.257812 L 152.894531 274.257812 L 152.894531 265.554688 Z M 161.597656 265.554688 L 161.597656 274.257812 L 170.304688 274.257812 L 170.304688 265.554688 Z M 187.714844 274.257812 L 187.714844 265.554688 L 179.007812 265.554688 L 179.007812 274.257812 Z M 205.121094 274.257812 L 205.121094 265.554688 L 196.417969 265.554688 L 196.417969 274.257812 Z M 222.53125 274.257812 L 222.53125 265.554688 L 213.828125 265.554688 L 213.828125 274.257812 Z M 239.941406 274.257812 L 239.941406 265.554688 L 231.234375 265.554688 L 231.234375 274.257812 Z M 257.347656 274.257812 L 257.347656 265.554688 L 248.644531 265.554688 L 248.644531 274.257812 Z M 274.757812 274.257812 L 274.757812 265.554688 L 266.054688 265.554688 L 266.054688 274.257812 Z M 292.167969 274.257812 L 292.167969 265.554688 L 283.460938 265.554688 L 283.460938 274.257812 Z M 309.574219 274.257812 L 309.574219 265.554688 L 300.871094 265.554688 L 300.871094 274.257812 Z M 326.984375 274.257812 L 326.984375 265.554688 L 318.28125 265.554688 L 318.28125 274.257812 Z M 335.6875 274.257812 L 344.394531 274.257812 L 344.394531 265.554688 L 335.6875 265.554688 Z M 152.894531 274.257812 L 152.894531 282.960938 L 161.597656 282.960938 L 161.597656 274.257812 Z M 179.007812 274.257812 L 170.304688 274.257812 L 170.304688 282.960938 L 179.007812 282.960938 Z M 196.417969 282.960938 L 196.417969 274.257812 L 187.714844 274.257812 L 187.714844 282.960938 Z M 213.828125 282.960938 L 213.828125 274.257812 L 205.121094 274.257812 L 205.121094 282.960938 Z M 231.234375 282.960938 L 231.234375 274.257812 L 222.53125 274.257812 L 222.53125 282.960938 Z M 248.644531 282.960938 L 248.644531 274.257812 L 239.941406 274.257812 L 239.941406 282.960938 Z M 266.054688 282.960938 L 266.054688 274.257812 L 257.347656 274.257812 L 257.347656 282.960938 Z M 283.460938 282.960938 L 283.460938 274.257812 L 274.757812 274.257812 L 274.757812 282.960938 Z M 300.871094 282.960938 L 300.871094 274.257812 L 292.167969 274.257812 L 292.167969 282.960938 Z M 318.28125 282.960938 L 318.28125 274.257812 L 309.574219 274.257812 L 309.574219 282.960938 Z M 326.984375 282.960938 L 335.6875 282.960938 L 335.6875 274.257812 L 326.984375 274.257812 Z M 353.097656 282.960938 L 353.097656 274.257812 L 344.394531 274.257812 L 344.394531 282.960938 Z M 170.304688 282.960938 L 161.597656 282.960938 L 161.597656 291.667969 L 170.304688 291.667969 Z M 187.714844 282.960938 L 179.007812 282.960938 L 179.007812 291.667969 L 187.714844 291.667969 Z M 205.121094 291.667969 L 205.121094 282.960938 L 196.417969 282.960938 L 196.417969 291.667969 Z M 222.53125 291.667969 L 222.53125 282.960938 L 213.828125 282.960938 L 213.828125 291.667969 Z M 239.941406 291.667969 L 239.941406 282.960938 L 231.234375 282.960938 L 231.234375 291.667969 Z M 257.347656 291.667969 L 257.347656 282.960938 L 248.644531 282.960938 L 248.644531 291.667969 Z M 274.757812 291.667969 L 274.757812 282.960938 L 266.054688 282.960938 L 266.054688 291.667969 Z M 292.167969 291.667969 L 292.167969 282.960938 L 283.460938 282.960938 L 283.460938 291.667969 Z M 309.574219 291.667969 L 309.574219 282.960938 L 300.871094 282.960938 L 300.871094 291.667969 Z M 318.28125 291.667969 L 326.984375 291.667969 L 326.984375 282.960938 L 318.28125 282.960938 Z M 344.394531 291.667969 L 344.394531 282.960938 L 335.6875 282.960938 L 335.6875 291.667969 Z M 361.800781 291.667969 L 361.800781 282.960938 L 353.097656 282.960938 L 353.097656 291.667969 Z M 152.894531 291.667969 L 152.894531 300.371094 L 161.597656 300.371094 L 161.597656 291.667969 Z M 179.007812 291.667969 L 170.304688 291.667969 L 170.304688 300.371094 L 179.007812 300.371094 Z M 187.714844 291.667969 L 187.714844 300.371094 L 196.417969 300.371094 L 196.417969 291.667969 Z M 205.121094 291.667969 L 205.121094 300.371094 L 213.828125 300.371094 L 213.828125 291.667969 Z M 231.234375 300.371094 L 231.234375 291.667969 L 222.53125 291.667969 L 222.53125 300.371094 Z M 248.644531 300.371094 L 248.644531 291.667969 L 239.941406 291.667969 L 239.941406 300.371094 Z M 266.054688 300.371094 L 266.054688 291.667969 L 257.347656 291.667969 L 257.347656 300.371094 Z M 283.460938 300.371094 L 283.460938 291.667969 L 274.757812 291.667969 L 274.757812 300.371094 Z M 300.871094 300.371094 L 300.871094 291.667969 L 292.167969 291.667969 L 292.167969 300.371094 Z M 309.574219 300.371094 L 318.28125 300.371094 L 318.28125 291.667969 L 309.574219 291.667969 Z M 335.6875 300.371094 L 335.6875 291.667969 L 326.984375 291.667969 L 326.984375 300.371094 Z M 344.394531 300.371094 L 353.097656 300.371094 L 353.097656 291.667969 L 344.394531 291.667969 Z M 170.304688 300.371094 L 161.597656 300.371094 L 161.597656 309.074219 L 170.304688 309.074219 Z M 179.007812 300.371094 L 179.007812 309.074219 L 187.714844 309.074219 L 187.714844 300.371094 Z M 196.417969 300.371094 L 196.417969 309.074219 L 205.121094 309.074219 L 205.121094 300.371094 Z M 222.53125 300.371094 L 213.828125 300.371094 L 213.828125 309.074219 L 222.53125 309.074219 Z M 239.941406 309.074219 L 239.941406 300.371094 L 231.234375 300.371094 L 231.234375 309.074219 Z M 257.347656 309.074219 L 257.347656 300.371094 L 248.644531 300.371094 L 248.644531 309.074219 Z M 274.757812 309.074219 L 274.757812 300.371094 L 266.054688 300.371094 L 266.054688 309.074219 Z M 292.167969 309.074219 L 292.167969 300.371094 L 283.460938 300.371094 L 283.460938 309.074219 Z M 300.871094 309.074219 L 309.574219 309.074219 L 309.574219 300.371094 L 300.871094 300.371094 Z M 326.984375 309.074219 L 326.984375 300.371094 L 318.28125 300.371094 L 318.28125 309.074219 Z M 335.6875 309.074219 L 344.394531 309.074219 L 344.394531 300.371094 L 335.6875 300.371094 Z M 361.800781 309.074219 L 361.800781 300.371094 L 353.097656 300.371094 L 353.097656 309.074219 Z M 152.894531 309.074219 L 152.894531 317.78125 L 161.597656 317.78125 L 161.597656 309.074219 Z M 170.304688 309.074219 L 170.304688 317.78125 L 179.007812 317.78125 L 179.007812 309.074219 Z M 187.714844 309.074219 L 187.714844 317.78125 L 196.417969 317.78125 L 196.417969 309.074219 Z M 213.828125 309.074219 L 205.121094 309.074219 L 205.121094 317.78125 L 213.828125 317.78125 Z M 231.234375 309.074219 L 222.53125 309.074219 L 222.53125 317.78125 L 231.234375 317.78125 Z M 239.941406 309.074219 L 239.941406 317.78125 L 248.644531 317.78125 L 248.644531 309.074219 Z M 257.347656 309.074219 L 257.347656 317.78125 L 266.054688 317.78125 L 266.054688 309.074219 Z M 274.757812 309.074219 L 274.757812 317.78125 L 283.460938 317.78125 L 283.460938 309.074219 Z M 292.167969 317.78125 L 300.871094 317.78125 L 300.871094 309.074219 L 292.167969 309.074219 Z M 318.28125 317.78125 L 318.28125 309.074219 L 309.574219 309.074219 L 309.574219 317.78125 Z M 326.984375 317.78125 L 335.6875 317.78125 L 335.6875 309.074219 L 326.984375 309.074219 Z M 353.097656 317.78125 L 353.097656 309.074219 L 344.394531 309.074219 L 344.394531 317.78125 Z M 370.507812 317.78125 L 370.507812 309.074219 L 361.800781 309.074219 L 361.800781 317.78125 Z M 161.597656 317.78125 L 161.597656 326.484375 L 170.304688 326.484375 L 170.304688 317.78125 Z M 179.007812 317.78125 L 179.007812 326.484375 L 187.714844 326.484375 L 187.714844 317.78125 Z M 205.121094 317.78125 L 196.417969 317.78125 L 196.417969 326.484375 L 205.121094 326.484375 Z M 222.53125 317.78125 L 213.828125 317.78125 L 213.828125 326.484375 L 222.53125 326.484375 Z M 231.234375 317.78125 L 231.234375 326.484375 L 239.941406 326.484375 L 239.941406 317.78125 Z M 248.644531 317.78125 L 248.644531 326.484375 L 257.347656 326.484375 L 257.347656 317.78125 Z M 266.054688 317.78125 L 266.054688 326.484375 L 274.757812 326.484375 L 274.757812 317.78125 Z M 283.460938 317.78125 L 283.460938 326.484375 L 292.167969 326.484375 L 292.167969 317.78125 Z M 300.871094 317.78125 L 300.871094 326.484375 L 309.574219 326.484375 L 309.574219 317.78125 Z M 318.28125 326.484375 L 326.984375 326.484375 L 326.984375 317.78125 L 318.28125 317.78125 Z M 344.394531 326.484375 L 344.394531 317.78125 L 335.6875 317.78125 L 335.6875 326.484375 Z M 353.097656 326.484375 L 361.800781 326.484375 L 361.800781 317.78125 L 353.097656 317.78125 Z M 170.304688 326.484375 L 170.304688 335.1875 L 179.007812 335.1875 L 179.007812 326.484375 Z M 196.417969 326.484375 L 187.714844 326.484375 L 187.714844 335.1875 L 196.417969 335.1875 Z M 213.828125 326.484375 L 205.121094 326.484375 L 205.121094 335.1875 L 213.828125 335.1875 Z M 222.53125 326.484375 L 222.53125 335.1875 L 231.234375 335.1875 L 231.234375 326.484375 Z M 239.941406 326.484375 L 239.941406 335.1875 L 248.644531 335.1875 L 248.644531 326.484375 Z M 257.347656 326.484375 L 257.347656 335.1875 L 266.054688 335.1875 L 266.054688 326.484375 Z M 274.757812 326.484375 L 274.757812 335.1875 L 283.460938 335.1875 L 283.460938 326.484375 Z M 292.167969 326.484375 L 292.167969 335.1875 L 300.871094 335.1875 L 300.871094 326.484375 Z M 309.574219 326.484375 L 309.574219 335.1875 L 318.28125 335.1875 L 318.28125 326.484375 Z M 335.6875 335.1875 L 335.6875 326.484375 L 326.984375 326.484375 L 326.984375 335.1875 Z M 344.394531 335.1875 L 353.097656 335.1875 L 353.097656 326.484375 L 344.394531 326.484375 Z M 370.507812 335.1875 L 370.507812 326.484375 L 361.800781 326.484375 L 361.800781 335.1875 Z M 187.714844 335.1875 L 179.007812 335.1875 L 179.007812 343.894531 L 187.714844 343.894531 Z M 205.121094 335.1875 L 196.417969 335.1875 L 196.417969 343.894531 L 205.121094 343.894531 Z M 213.828125 335.1875 L 213.828125 343.894531 L 222.53125 343.894531 L 222.53125 335.1875 Z M 231.234375 335.1875 L 231.234375 343.894531 L 239.941406 343.894531 L 239.941406 335.1875 Z M 248.644531 335.1875 L 248.644531 343.894531 L 257.347656 343.894531 L 257.347656 335.1875 Z M 266.054688 335.1875 L 266.054688 343.894531 L 274.757812 343.894531 L 274.757812 335.1875 Z M 283.460938 335.1875 L 283.460938 343.894531 L 292.167969 343.894531 L 292.167969 335.1875 Z M 300.871094 335.1875 L 300.871094 343.894531 L 309.574219 343.894531 L 309.574219 335.1875 Z M 318.28125 335.1875 L 318.28125 343.894531 L 326.984375 343.894531 L 326.984375 335.1875 Z M 335.6875 343.894531 L 344.394531 343.894531 L 344.394531 335.1875 L 335.6875 335.1875 Z M 361.800781 343.894531 L 361.800781 335.1875 L 353.097656 335.1875 L 353.097656 343.894531 Z M 379.210938 343.894531 L 379.210938 335.1875 L 370.507812 335.1875 L 370.507812 343.894531 Z M 170.304688 343.894531 L 170.304688 352.597656 L 179.007812 352.597656 L 179.007812 343.894531 Z M 196.417969 343.894531 L 187.714844 343.894531 L 187.714844 352.597656 L 196.417969 352.597656 Z M 205.121094 343.894531 L 205.121094 352.597656 L 213.828125 352.597656 L 213.828125 343.894531 Z M 222.53125 343.894531 L 222.53125 352.597656 L 231.234375 352.597656 L 231.234375 343.894531 Z M 239.941406 343.894531 L 239.941406 352.597656 L 248.644531 352.597656 L 248.644531 343.894531 Z M 257.347656 343.894531 L 257.347656 352.597656 L 266.054688 352.597656 L 266.054688 343.894531 Z M 274.757812 343.894531 L 274.757812 352.597656 L 283.460938 352.597656 L 283.460938 343.894531 Z M 292.167969 343.894531 L 292.167969 352.597656 L 300.871094 352.597656 L 300.871094 343.894531 Z M 309.574219 343.894531 L 309.574219 352.597656 L 318.28125 352.597656 L 318.28125 343.894531 Z M 326.984375 343.894531 L 326.984375 352.597656 L 335.6875 352.597656 L 335.6875 343.894531 Z M 344.394531 343.894531 L 344.394531 352.597656 L 353.097656 352.597656 L 353.097656 343.894531 Z M 361.800781 352.597656 L 370.507812 352.597656 L 370.507812 343.894531 L 361.800781 343.894531 Z M 187.714844 352.597656 L 179.007812 352.597656 L 179.007812 361.300781 L 187.714844 361.300781 Z M 196.417969 352.597656 L 196.417969 361.300781 L 205.121094 361.300781 L 205.121094 352.597656 Z M 213.828125 352.597656 L 213.828125 361.300781 L 222.53125 361.300781 L 222.53125 352.597656 Z M 231.234375 352.597656 L 231.234375 361.300781 L 239.941406 361.300781 L 239.941406 352.597656 Z M 248.644531 352.597656 L 248.644531 361.300781 L 257.347656 361.300781 L 257.347656 352.597656 Z M 266.054688 352.597656 L 266.054688 361.300781 L 274.757812 361.300781 L 274.757812 352.597656 Z M 283.460938 352.597656 L 283.460938 361.300781 L 292.167969 361.300781 L 292.167969 352.597656 Z M 300.871094 352.597656 L 300.871094 361.300781 L 309.574219 361.300781 L 309.574219 352.597656 Z M 318.28125 352.597656 L 318.28125 361.300781 L 326.984375 361.300781 L 326.984375 352.597656 Z M 335.6875 352.597656 L 335.6875 361.300781 L 344.394531 361.300781 L 344.394531 352.597656 Z M 353.097656 352.597656 L 353.097656 361.300781 L 361.800781 361.300781 L 361.800781 352.597656 Z M 379.210938 361.300781 L 379.210938 352.597656 L 370.507812 352.597656 L 370.507812 361.300781 Z M 170.304688 361.300781 L 170.304688 370.007812 L 179.007812 370.007812 L 179.007812 361.300781 Z M 187.714844 361.300781 L 187.714844 370.007812 L 196.417969 370.007812 L 196.417969 361.300781 Z M 205.121094 361.300781 L 205.121094 370.007812 L 213.828125 370.007812 L 213.828125 361.300781 Z M 222.53125 361.300781 L 222.53125 370.007812 L 231.234375 370.007812 L 231.234375 361.300781 Z M 239.941406 361.300781 L 239.941406 370.007812 L 248.644531 370.007812 L 248.644531 361.300781 Z M 257.347656 361.300781 L 257.347656 370.007812 L 266.054688 370.007812 L 266.054688 361.300781 Z M 274.757812 361.300781 L 274.757812 370.007812 L 283.460938 370.007812 L 283.460938 361.300781 Z M 292.167969 361.300781 L 292.167969 370.007812 L 300.871094 370.007812 L 300.871094 361.300781 Z M 309.574219 361.300781 L 309.574219 370.007812 L 318.28125 370.007812 L 318.28125 361.300781 Z M 326.984375 361.300781 L 326.984375 370.007812 L 335.6875 370.007812 L 335.6875 361.300781 Z M 344.394531 361.300781 L 344.394531 370.007812 L 353.097656 370.007812 L 353.097656 361.300781 Z M 361.800781 361.300781 L 361.800781 370.007812 L 370.507812 370.007812 L 370.507812 361.300781 Z M 379.210938 370.007812 L 387.914062 370.007812 L 387.914062 361.300781 L 379.210938 361.300781 Z M 179.007812 378.710938 L 187.714844 378.710938 L 187.714844 370.007812 L 179.007812 370.007812 Z M 196.417969 378.710938 L 205.121094 378.710938 L 205.121094 370.007812 L 196.417969 370.007812 Z M 213.828125 378.710938 L 222.53125 378.710938 L 222.53125 370.007812 L 213.828125 370.007812 Z M 231.234375 378.710938 L 239.941406 378.710938 L 239.941406 370.007812 L 231.234375 370.007812 Z M 248.644531 378.710938 L 257.347656 378.710938 L 257.347656 370.007812 L 248.644531 370.007812 Z M 266.054688 378.710938 L 274.757812 378.710938 L 274.757812 370.007812 L 266.054688 370.007812 Z M 283.460938 378.710938 L 292.167969 378.710938 L 292.167969 370.007812 L 283.460938 370.007812 Z M 300.871094 378.710938 L 309.574219 378.710938 L 309.574219 370.007812 L 300.871094 370.007812 Z M 318.28125 378.710938 L 326.984375 378.710938 L 326.984375 370.007812 L 318.28125 370.007812 Z M 335.6875 378.710938 L 344.394531 378.710938 L 344.394531 370.007812 L 335.6875 370.007812 Z M 353.097656 378.710938 L 361.800781 378.710938 L 361.800781 370.007812 L 353.097656 370.007812 Z M 370.507812 378.710938 L 379.210938 378.710938 L 379.210938 370.007812 L 370.507812 370.007812 Z M 370.507812 378.710938 " fill-opacity="1" fill-rule="nonzero"/><g clip-path="url(#6a3d7beda7)"><path fill="#000000" d="M 205.121094 178.507812 L 196.417969 178.507812 L 196.417969 169.804688 L 266.054688 169.804688 L 266.054688 178.507812 Z M 196.417969 178.507812 L 187.714844 178.507812 L 187.714844 187.214844 L 196.417969 187.214844 Z M 274.757812 187.214844 L 274.757812 178.507812 L 266.054688 178.507812 L 266.054688 187.214844 Z M 187.714844 187.214844 L 179.007812 187.214844 L 179.007812 195.917969 L 187.714844 195.917969 Z M 283.460938 195.917969 L 283.460938 187.214844 L 274.757812 187.214844 L 274.757812 195.917969 Z M 292.167969 204.621094 L 396.621094 204.621094 L 396.621094 195.917969 L 283.460938 195.917969 L 283.460938 204.621094 Z M 405.324219 213.328125 L 405.324219 204.621094 L 396.621094 204.621094 L 396.621094 213.328125 Z M 405.324219 213.328125 L 405.324219 370.007812 L 396.621094 370.007812 L 396.621094 352.597656 L 387.914062 352.597656 L 387.914062 378.710938 L 179.007812 378.710938 L 179.007812 387.414062 L 405.324219 387.414062 L 405.324219 378.710938 L 414.027344 378.710938 L 414.027344 213.328125 Z M 161.597656 248.144531 L 353.097656 248.144531 L 353.097656 239.441406 L 179.007812 239.441406 L 179.007812 195.917969 L 170.304688 195.917969 L 170.304688 239.441406 L 144.191406 239.441406 L 144.191406 248.144531 Z M 144.191406 256.847656 L 144.191406 248.144531 L 135.484375 248.144531 L 135.484375 274.257812 L 144.191406 274.257812 Z M 361.800781 256.847656 L 361.800781 248.144531 L 353.097656 248.144531 L 353.097656 274.257812 L 361.800781 274.257812 Z M 152.894531 282.960938 L 152.894531 274.257812 L 144.191406 274.257812 L 144.191406 300.371094 L 152.894531 300.371094 Z M 370.507812 282.960938 L 370.507812 274.257812 L 361.800781 274.257812 L 361.800781 300.371094 L 370.507812 300.371094 Z M 161.597656 309.074219 L 161.597656 300.371094 L 152.894531 300.371094 L 152.894531 326.484375 L 161.597656 326.484375 Z M 379.210938 309.074219 L 379.210938 300.371094 L 370.507812 300.371094 L 370.507812 326.484375 L 379.210938 326.484375 Z M 170.304688 335.1875 L 170.304688 326.484375 L 161.597656 326.484375 L 161.597656 352.597656 L 170.304688 352.597656 Z M 387.914062 335.1875 L 387.914062 326.484375 L 379.210938 326.484375 L 379.210938 352.597656 L 387.914062 352.597656 Z M 179.007812 361.300781 L 179.007812 352.597656 L 170.304688 352.597656 L 170.304688 378.710938 L 179.007812 378.710938 Z M 179.007812 361.300781 " fill-opacity="1" fill-rule="nonzero"/></g><g mask="url(#c0dc642f63)"><g transform="matrix(1, 0, 0, 1, 143, 230)"><g clip-path="url(#ced1f84ba2)"><g clip-path="url(#425ed33305)"><path fill="#000000" d="M 218.800781 9.441406 L 218.800781 18.144531 L 210.097656 18.144531 L 210.097656 9.441406 Z M 227.507812 26.847656 L 227.507812 18.144531 L 218.800781 18.144531 L 218.800781 44.257812 L 227.507812 44.257812 Z M 236.210938 52.960938 L 236.210938 44.257812 L 227.507812 44.257812 L 227.507812 70.371094 L 236.210938 70.371094 Z M 244.914062 79.074219 L 244.914062 70.371094 L 236.210938 70.371094 L 236.210938 96.484375 L 244.914062 96.484375 Z M 253.621094 105.1875 L 253.621094 96.484375 L 244.914062 96.484375 L 244.914062 122.597656 L 253.621094 122.597656 Z M 253.621094 122.597656 L 253.621094 140.007812 L 262.324219 140.007812 L 262.324219 122.597656 Z M 36.007812 0.734375 L 36.007812 9.441406 L 210.097656 9.441406 L 210.097656 0.734375 Z M 1.191406 18.144531 L 1.191406 44.257812 L 9.894531 44.257812 L 9.894531 18.144531 Z M 9.894531 44.257812 L 9.894531 70.371094 L 18.597656 70.371094 L 18.597656 44.257812 Z M 18.597656 70.371094 L 18.597656 96.484375 L 27.304688 96.484375 L 27.304688 70.371094 Z M 27.304688 96.484375 L 27.304688 122.597656 L 36.007812 122.597656 L 36.007812 96.484375 Z M 44.714844 122.597656 L 36.007812 122.597656 L 36.007812 148.710938 L 236.210938 148.710938 L 236.210938 140.007812 L 44.714844 140.007812 Z M 44.714844 122.597656 " fill-opacity="1" fill-rule="nonzero"/></g></g></g></g><g mask="url(#32cd985ae3)"><g transform="matrix(1, 0, 0, 1, 152, 178)"><g clip-path="url(#c06c3e65c5)"><g clip-path="url(#167d37aa7b)"><path fill="#ffffff" d="M 201.097656 78.847656 L 201.097656 96.257812 L 192.394531 96.257812 L 192.394531 78.847656 L 0.894531 78.847656 L 0.894531 70.144531 L 201.097656 70.144531 Z M 131.460938 26.621094 L 131.460938 35.328125 L 244.621094 35.328125 L 244.621094 26.621094 Z M 201.097656 96.257812 L 201.097656 122.371094 L 209.800781 122.371094 L 209.800781 96.257812 Z M 209.800781 122.371094 L 209.800781 148.484375 L 218.507812 148.484375 L 218.507812 122.371094 Z M 218.507812 148.484375 L 218.507812 174.597656 L 227.210938 174.597656 L 227.210938 148.484375 Z M 227.210938 200.710938 L 235.914062 200.710938 L 235.914062 174.597656 L 227.210938 174.597656 Z M 244.621094 35.328125 L 244.621094 192.007812 L 253.324219 192.007812 L 253.324219 35.328125 Z M 44.417969 0.507812 L 44.417969 9.214844 L 114.054688 9.214844 L 114.054688 0.507812 Z M 114.054688 9.214844 L 114.054688 17.917969 L 122.757812 17.917969 L 122.757812 9.214844 Z M 35.714844 17.917969 L 44.417969 17.917969 L 44.417969 9.214844 L 35.714844 9.214844 Z M 122.757812 17.917969 L 122.757812 26.621094 L 131.460938 26.621094 L 131.460938 17.917969 Z M 27.007812 52.734375 L 35.714844 52.734375 L 35.714844 17.917969 L 27.007812 17.917969 Z M 27.007812 52.734375 " fill-opacity="1" fill-rule="nonzero"/></g></g></g></g></svg>