<svg xmlns="http://www.w3.org/2000/svg" xmlns:xlink="http://www.w3.org/1999/xlink" width="755" zoomAndPan="magnify" viewBox="0 0 567 567.000005" height="755" preserveAspectRatio="xMidYMid meet" version="1.0"><defs><filter x="0%" y="0%" width="100%" height="100%" id="da6d797996"><feColorMatrix values="0 0 0 0 1 0 0 0 0 1 0 0 0 0 1 0 0 0 1 0" color-interpolation-filters="sRGB"/></filter><clipPath id="2fdabc456d"><path d="M 179 175 L 401.75 175 L 401.75 397.953125 L 179 397.953125 Z M 179 175 " clip-rule="nonzero"/></clipPath><mask id="bc15ad7032"><g filter="url(#da6d797996)"><rect x="-56.7" width="680.4" fill="#000000" y="-56.700001" height="680.400006" fill-opacity="0.3"/></g></mask><clipPath id="d0603d52e8"><path d="M 0.941406 0.371094 L 222.75 0.371094 L 222.75 222.9375 L 0.941406 222.9375 Z M 0.941406 0.371094 " clip-rule="nonzero"/></clipPath><clipPath id="344a0d60e5"><rect x="0" width="223" y="0" height="223"/></clipPath><mask id="3f7c23a1d2"><g filter="url(#da6d797996)"><rect x="-56.7" width="680.4" fill="#000000" y="-56.700001" height="680.400006" fill-opacity="0.3"/></g></mask><clipPath id="c42e36edc6"><path d="M 0.0351562 0.0390625 L 126.292969 0.0390625 L 126.292969 200 L 0.0351562 200 Z M 0.0351562 0.0390625 " clip-rule="nonzero"/></clipPath><clipPath id="6acdcc1a82"><rect x="0" width="127" y="0" height="201"/></clipPath><clipPath id="0a16eb1604"><path d="M 165.167969 168.109375 L 387 168.109375 L 387 391 L 165.167969 391 Z M 165.167969 168.109375 " clip-rule="nonzero"/></clipPath></defs><g clip-path="url(#2fdabc456d)"><g mask="url(#bc15ad7032)"><g transform="matrix(1, 0, 0, 1, 179, 175)"><g clip-path="url(#344a0d60e5)"><g clip-path="url(#d0603d52e8)"><path fill="#000000" d="M 222.761719 67.296875 L 222.761719 119.050781 L 215.367188 119.050781 L 215.367188 133.839844 L 207.972656 133.839844 L 207.972656 141.234375 L 200.582031 141.234375 L 200.582031 148.625 L 193.1875 148.625 L 193.1875 156.019531 L 185.792969 156.019531 L 185.792969 163.414062 L 178.398438 163.414062 L 178.398438 170.808594 L 163.613281 170.808594 L 163.613281 178.199219 L 141.433594 178.199219 L 141.433594 222.5625 L 126.644531 222.5625 L 126.644531 215.167969 L 119.25 215.167969 L 119.25 207.773438 L 111.859375 207.773438 L 111.859375 200.382812 L 104.464844 200.382812 L 104.464844 185.59375 L 82.285156 185.59375 L 82.285156 178.199219 L 60.101562 178.199219 L 60.101562 170.808594 L 45.316406 170.808594 L 45.316406 163.414062 L 37.921875 163.414062 L 37.921875 156.019531 L 30.527344 156.019531 L 30.527344 148.625 L 23.136719 148.625 L 23.136719 141.234375 L 15.742188 141.234375 L 15.742188 133.839844 L 8.347656 133.839844 L 8.347656 119.050781 L 0.953125 119.050781 L 0.953125 67.296875 L 8.347656 67.296875 L 8.347656 52.511719 L 15.742188 52.511719 L 15.742188 45.117188 L 23.136719 45.117188 L 23.136719 37.722656 L 30.527344 37.722656 L 30.527344 30.328125 L 37.921875 30.328125 L 37.921875 22.9375 L 45.316406 22.9375 L 45.316406 15.542969 L 60.101562 15.542969 L 60.101562 8.148438 L 82.285156 8.148438 L 82.285156 0.753906 L 141.433594 0.753906 L 141.433594 8.148438 L 163.613281 8.148438 L 163.613281 15.542969 L 178.398438 15.542969 L 178.398438 22.9375 L 185.792969 22.9375 L 185.792969 30.328125 L 193.1875 30.328125 L 193.1875 37.722656 L 200.582031 37.722656 L 200.582031 45.117188 L 207.972656 45.117188 L 207.972656 52.511719 L 215.367188 52.511719 L 215.367188 67.296875 Z M 222.761719 67.296875 " fill-opacity="1" fill-rule="nonzero"/></g></g></g></g></g><path fill="#ffffff" d="M 172.5625 286.660156 L 172.5625 234.902344 L 179.953125 220.117188 L 209.527344 190.542969 L 224.316406 183.148438 L 246.496094 175.753906 L 305.644531 175.753906 L 327.824219 183.148438 L 342.613281 190.542969 L 372.1875 220.117188 L 379.582031 234.902344 L 379.582031 286.660156 L 372.1875 301.445312 L 342.613281 331.019531 L 327.824219 338.414062 L 305.644531 345.808594 L 298.25 345.808594 L 298.25 382.773438 L 290.859375 382.773438 L 290.859375 375.382812 L 283.464844 375.382812 L 276.070312 367.988281 L 268.675781 353.199219 L 246.496094 345.808594 L 224.316406 338.414062 L 209.527344 331.019531 L 179.953125 301.445312 Z M 172.5625 286.660156 " fill-opacity="1" fill-rule="nonzero"/><g mask="url(#3f7c23a1d2)"><g transform="matrix(1, 0, 0, 1, 172, 183)"><g clip-path="url(#6acdcc1a82)"><g clip-path="url(#c42e36edc6)"><path fill="#000000" d="M 15.347656 51.902344 L 7.953125 51.902344 L 7.953125 37.117188 L 15.347656 37.117188 Z M 7.953125 103.660156 L 7.953125 118.445312 L 15.347656 118.445312 L 15.347656 103.660156 Z M 22.742188 29.722656 L 15.347656 29.722656 L 15.347656 37.117188 L 22.742188 37.117188 Z M 15.347656 118.445312 L 15.347656 125.839844 L 22.742188 125.839844 L 22.742188 118.445312 Z M 96.675781 162.808594 L 96.675781 170.199219 L 104.070312 170.199219 L 104.070312 162.808594 Z M 104.070312 170.199219 L 104.070312 184.988281 L 111.464844 184.988281 L 111.464844 170.199219 Z M 111.464844 184.988281 L 111.464844 192.382812 L 118.859375 192.382812 L 118.859375 184.988281 Z M 118.859375 192.382812 L 118.859375 199.773438 L 126.25 199.773438 L 126.25 192.382812 Z M 30.136719 133.234375 L 30.136719 140.625 L 37.527344 140.625 L 37.527344 133.234375 Z M 37.527344 140.625 L 37.527344 148.019531 L 52.316406 148.019531 L 52.316406 140.625 Z M 52.316406 148.019531 L 52.316406 155.414062 L 74.496094 155.414062 L 74.496094 148.019531 Z M 74.496094 155.414062 L 74.496094 162.808594 L 96.675781 162.808594 L 96.675781 155.414062 Z M 30.136719 22.328125 L 22.742188 22.328125 L 22.742188 29.722656 L 30.136719 29.722656 Z M 22.742188 125.839844 L 22.742188 133.234375 L 30.136719 133.234375 L 30.136719 125.839844 Z M 37.527344 14.9375 L 30.136719 14.9375 L 30.136719 22.328125 L 37.527344 22.328125 Z M 52.316406 7.542969 L 37.527344 7.542969 L 37.527344 14.9375 L 52.316406 14.9375 Z M 74.496094 0.148438 L 52.316406 0.148438 L 52.316406 7.542969 L 74.496094 7.542969 Z M 7.953125 88.871094 L 7.953125 51.902344 L 0.5625 51.902344 L 0.5625 103.660156 L 7.953125 103.660156 Z M 7.953125 88.871094 " fill-opacity="1" fill-rule="nonzero"/></g></g></g></g><path fill="#f32a90" d="M 261.285156 220.117188 L 253.890625 220.117188 L 253.890625 205.328125 L 261.285156 205.328125 L 261.285156 197.9375 L 290.859375 197.9375 L 290.859375 205.328125 L 298.25 205.328125 L 298.25 220.117188 L 290.859375 220.117188 L 290.859375 227.511719 L 261.285156 227.511719 Z M 305.644531 308.839844 L 298.25 308.839844 L 298.25 242.296875 L 246.496094 242.296875 L 246.496094 249.691406 L 261.285156 249.691406 L 261.285156 308.839844 L 246.496094 308.839844 L 246.496094 316.234375 L 313.039062 316.234375 L 313.039062 308.839844 Z M 305.644531 308.839844 " fill-opacity="1" fill-rule="nonzero"/><g clip-path="url(#0a16eb1604)"><path fill="#000000" d="M 253.890625 175.753906 L 246.496094 175.753906 L 246.496094 168.359375 L 305.644531 168.359375 L 305.644531 175.753906 Z M 239.101562 183.148438 L 246.496094 183.148438 L 246.496094 175.753906 L 224.316406 175.753906 L 224.316406 183.148438 Z M 313.039062 183.148438 L 327.824219 183.148438 L 327.824219 175.753906 L 305.644531 175.753906 L 305.644531 183.148438 Z M 224.316406 190.542969 L 224.316406 183.148438 L 209.527344 183.148438 L 209.527344 190.542969 Z M 335.21875 190.542969 L 342.613281 190.542969 L 342.613281 183.148438 L 327.824219 183.148438 L 327.824219 190.542969 Z M 209.527344 190.542969 L 202.136719 190.542969 L 202.136719 197.9375 L 209.527344 197.9375 Z M 350.007812 197.9375 L 350.007812 190.542969 L 342.613281 190.542969 L 342.613281 197.9375 Z M 202.136719 197.9375 L 194.742188 197.9375 L 194.742188 205.328125 L 202.136719 205.328125 Z M 357.398438 205.328125 L 357.398438 197.9375 L 350.007812 197.9375 L 350.007812 205.328125 Z M 194.742188 205.328125 L 187.347656 205.328125 L 187.347656 212.722656 L 194.742188 212.722656 Z M 364.792969 212.722656 L 364.792969 205.328125 L 357.398438 205.328125 L 357.398438 212.722656 Z M 187.347656 212.722656 L 179.953125 212.722656 L 179.953125 220.117188 L 187.347656 220.117188 Z M 372.1875 220.117188 L 372.1875 212.722656 L 364.792969 212.722656 L 364.792969 220.117188 Z M 179.953125 227.511719 L 179.953125 220.117188 L 172.5625 220.117188 L 172.5625 234.902344 L 179.953125 234.902344 Z M 372.1875 234.902344 L 379.582031 234.902344 L 379.582031 220.117188 L 372.1875 220.117188 Z M 379.582031 234.902344 L 379.582031 286.660156 L 386.972656 286.660156 L 386.972656 234.902344 Z M 172.5625 271.871094 L 172.5625 234.902344 L 165.167969 234.902344 L 165.167969 286.660156 L 172.5625 286.660156 Z M 179.953125 286.660156 L 172.5625 286.660156 L 172.5625 301.445312 L 179.953125 301.445312 Z M 372.1875 294.050781 L 372.1875 301.445312 L 379.582031 301.445312 L 379.582031 286.660156 L 372.1875 286.660156 Z M 179.953125 301.445312 L 179.953125 308.839844 L 187.347656 308.839844 L 187.347656 301.445312 Z M 364.792969 308.839844 L 372.1875 308.839844 L 372.1875 301.445312 L 364.792969 301.445312 Z M 187.347656 308.839844 L 187.347656 316.234375 L 194.742188 316.234375 L 194.742188 308.839844 Z M 357.398438 316.234375 L 364.792969 316.234375 L 364.792969 308.839844 L 357.398438 308.839844 Z M 194.742188 316.234375 L 194.742188 323.625 L 202.136719 323.625 L 202.136719 316.234375 Z M 350.007812 323.625 L 357.398438 323.625 L 357.398438 316.234375 L 350.007812 316.234375 Z M 202.136719 323.625 L 202.136719 331.019531 L 209.527344 331.019531 L 209.527344 323.625 Z M 342.613281 331.019531 L 350.007812 331.019531 L 350.007812 323.625 L 342.613281 323.625 Z M 216.921875 331.019531 L 209.527344 331.019531 L 209.527344 338.414062 L 224.316406 338.414062 L 224.316406 331.019531 Z M 327.824219 331.019531 L 327.824219 338.414062 L 342.613281 338.414062 L 342.613281 331.019531 Z M 239.101562 338.414062 L 224.316406 338.414062 L 224.316406 345.808594 L 246.496094 345.808594 L 246.496094 338.414062 Z M 313.039062 338.414062 L 305.644531 338.414062 L 305.644531 345.808594 L 327.824219 345.808594 L 327.824219 338.414062 Z M 261.285156 345.808594 L 246.496094 345.808594 L 246.496094 353.199219 L 268.675781 353.199219 L 268.675781 345.808594 Z M 298.25 353.199219 L 298.25 382.773438 L 290.859375 382.773438 L 290.859375 390.167969 L 305.644531 390.167969 L 305.644531 345.808594 L 298.25 345.808594 Z M 276.070312 353.199219 L 268.675781 353.199219 L 268.675781 367.988281 L 276.070312 367.988281 Z M 276.070312 367.988281 L 276.070312 375.382812 L 283.464844 375.382812 L 283.464844 367.988281 Z M 283.464844 375.382812 L 283.464844 382.773438 L 290.859375 382.773438 L 290.859375 375.382812 Z M 283.464844 375.382812 " fill-opacity="1" fill-rule="nonzero"/></g></svg>