<svg xmlns="http://www.w3.org/2000/svg" xmlns:xlink="http://www.w3.org/1999/xlink" width="755" zoomAndPan="magnify" viewBox="0 0 567 567.000005" height="755" preserveAspectRatio="xMidYMid meet" version="1.0"><defs><clipPath id="bdd344e282"><path d="M 168.386719 167.886719 L 398.230469 167.886719 L 398.230469 397.730469 L 168.386719 397.730469 Z M 168.386719 167.886719 " clip-rule="nonzero"/></clipPath></defs><g clip-path="url(#bdd344e282)"><path fill="#ff66c4" d="M 327.363281 167.886719 L 360.886719 167.886719 L 360.886719 172.035156 L 373.453125 172.035156 L 373.453125 176.339844 L 377.59375 176.339844 L 377.59375 180.453125 L 386.027344 180.453125 L 386.027344 188.886719 L 390.140625 188.886719 L 390.140625 193.027344 L 394.285156 193.027344 L 394.285156 209.660156 L 398.539062 209.660156 L 398.539062 230.628906 L 394.222656 230.628906 L 394.222656 251.613281 L 390.078125 251.613281 L 390.078125 264.175781 L 385.96875 264.175781 L 385.96875 272.609375 L 381.738281 272.609375 L 381.738281 289.273438 L 386.027344 289.273438 L 386.027344 301.832031 L 390.140625 301.832031 L 390.140625 314.367188 L 394.253906 314.367188 L 394.253906 331.03125 L 398.539062 331.03125 L 398.539062 356.128906 L 394.226562 356.128906 L 394.226562 368.6875 L 390.085938 368.6875 L 390.085938 377.121094 L 385.972656 377.121094 L 385.972656 381.265625 L 381.667969 381.265625 L 381.667969 385.539062 L 377.523438 385.539062 L 377.523438 389.683594 L 373.410156 389.683594 L 373.410156 393.824219 L 356.554688 393.824219 L 356.554688 398.015625 L 331.472656 398.015625 L 331.472656 393.769531 L 310.652344 393.769531 L 310.652344 389.632812 L 298.117188 389.632812 L 298.117188 385.488281 L 289.683594 385.488281 L 289.683594 381.28125 L 277.121094 381.28125 L 277.121094 385.546875 L 264.585938 385.546875 L 264.585938 389.683594 L 252.027344 389.683594 L 252.027344 393.792969 L 235.167969 393.792969 L 235.167969 398.019531 L 210.089844 398.019531 L 210.089844 393.726562 L 193.398438 393.726562 L 193.398438 389.617188 L 184.996094 389.617188 L 184.996094 385.503906 L 180.855469 385.503906 L 180.855469 381.199219 L 176.742188 381.199219 L 176.742188 372.929688 L 172.4375 372.929688 L 172.4375 360.398438 L 168.394531 360.398438 L 168.394531 326.867188 L 172.480469 326.867188 L 172.480469 310.179688 L 176.789062 310.179688 L 176.789062 297.648438 L 180.929688 297.648438 L 180.929688 289.214844 L 184.957031 289.214844 L 184.957031 276.683594 L 180.875 276.683594 L 180.875 268.25 L 176.730469 268.25 L 176.730469 255.722656 L 172.425781 255.722656 L 172.425781 239.03125 L 168.386719 239.03125 L 168.386719 205.496094 L 172.488281 205.496094 L 172.488281 192.96875 L 176.792969 192.96875 L 176.792969 184.535156 L 180.90625 184.535156 L 180.90625 180.390625 L 185.046875 180.390625 L 185.046875 176.277344 L 193.449219 176.277344 L 193.449219 172.003906 L 205.984375 172.003906 L 205.984375 167.886719 L 239.511719 167.886719 L 239.511719 172.035156 L 256.203125 172.035156 L 256.203125 176.339844 L 268.765625 176.339844 L 268.765625 180.453125 L 277.199219 180.453125 L 277.199219 184.519531 L 289.734375 184.519531 L 289.734375 180.394531 L 298.167969 180.394531 L 298.167969 176.285156 L 310.703125 176.285156 L 310.703125 172.003906 L 327.367188 172.003906 L 327.367188 167.886719 Z M 235.183594 243.191406 L 235.183594 247.332031 L 231.042969 247.332031 L 231.042969 251.640625 L 226.929688 251.640625 L 226.929688 255.75 L 222.652344 255.75 L 222.652344 259.894531 L 218.511719 259.894531 L 218.511719 264.171875 L 214.367188 264.171875 L 214.367188 272.605469 L 210.09375 272.605469 L 210.09375 276.746094 L 206.039062 276.746094 L 206.039062 289.28125 L 210.140625 289.28125 L 210.140625 293.394531 L 214.445312 293.394531 L 214.445312 301.828125 L 218.558594 301.828125 L 218.558594 305.96875 L 222.699219 305.96875 L 222.699219 310.246094 L 227.007812 310.246094 L 227.007812 314.386719 L 231.117188 314.386719 L 231.117188 318.5 L 235.230469 318.5 L 235.230469 322.808594 L 239.535156 322.808594 L 239.535156 326.917969 L 243.679688 326.917969 L 243.679688 331.0625 L 247.792969 331.0625 L 247.792969 335.367188 L 252.097656 335.367188 L 252.097656 339.480469 L 256.210938 339.480469 L 256.210938 343.589844 L 260.351562 343.589844 L 260.351562 347.898438 L 264.628906 347.898438 L 264.628906 352.039062 L 273.0625 352.039062 L 273.0625 356.152344 L 277.203125 356.152344 L 277.203125 360.378906 L 289.738281 360.378906 L 289.738281 356.113281 L 293.851562 356.113281 L 293.851562 351.96875 L 298.160156 351.96875 L 298.160156 347.855469 L 306.429688 347.855469 L 306.429688 343.550781 L 310.703125 343.550781 L 310.703125 339.40625 L 314.847656 339.40625 L 314.847656 335.296875 L 318.957031 335.296875 L 318.957031 331.019531 L 323.265625 331.019531 L 323.265625 326.878906 L 327.375 326.878906 L 327.375 322.734375 L 331.519531 322.734375 L 331.519531 318.460938 L 335.824219 318.460938 L 335.824219 314.316406 L 339.9375 314.316406 L 339.9375 310.203125 L 344.050781 310.203125 L 344.050781 305.898438 L 348.355469 305.898438 L 348.355469 297.660156 L 352.5 297.660156 L 352.5 293.351562 L 356.609375 293.351562 L 356.609375 289.210938 L 360.835938 289.210938 L 360.835938 276.675781 L 356.570312 276.675781 L 356.570312 272.5625 L 352.425781 272.5625 L 352.425781 268.257812 L 348.316406 268.257812 L 348.316406 259.824219 L 344.007812 259.824219 L 344.007812 255.710938 L 339.867188 255.710938 L 339.867188 251.566406 L 335.753906 251.566406 L 335.753906 247.292969 L 331.480469 247.292969 L 331.480469 243.148438 L 327.335938 243.148438 L 327.335938 239.039062 L 323.191406 239.039062 L 323.191406 234.730469 L 318.917969 234.730469 L 318.917969 230.589844 L 314.773438 230.589844 L 314.773438 226.476562 L 310.664062 226.476562 L 310.664062 222.199219 L 306.355469 222.199219 L 306.355469 218.058594 L 298.117188 218.058594 L 298.117188 213.914062 L 293.8125 213.914062 L 293.8125 209.640625 L 289.667969 209.640625 L 289.667969 205.585938 L 277.132812 205.585938 L 277.132812 209.679688 L 273.019531 209.679688 L 273.019531 213.988281 L 264.585938 213.988281 L 264.585938 218.097656 L 260.28125 218.097656 L 260.28125 222.242188 L 256.167969 222.242188 L 256.167969 226.546875 L 252.027344 226.546875 L 252.027344 230.660156 L 247.75 230.660156 L 247.75 234.773438 L 243.609375 234.773438 L 243.609375 239.078125 L 239.496094 239.078125 L 239.496094 243.191406 Z M 381.707031 318.445312 L 377.539062 318.445312 L 377.539062 305.914062 L 373.394531 305.914062 L 373.394531 297.71875 L 369.121094 297.71875 L 369.121094 301.84375 L 364.976562 301.84375 L 364.976562 310.246094 L 360.867188 310.246094 L 360.867188 314.359375 L 356.558594 314.359375 L 356.558594 318.5 L 352.449219 318.5 L 352.449219 322.808594 L 348.304688 322.808594 L 348.304688 331.046875 L 344 331.046875 L 344 335.351562 L 339.886719 335.351562 L 339.886719 339.496094 L 335.742188 339.496094 L 335.742188 343.605469 L 331.4375 343.605469 L 331.4375 347.914062 L 323.199219 347.914062 L 323.199219 352.027344 L 318.921875 352.027344 L 318.921875 356.167969 L 314.78125 356.167969 L 314.78125 360.445312 L 310.636719 360.445312 L 310.636719 364.585938 L 302.234375 364.585938 L 302.234375 368.730469 L 298.167969 368.730469 L 298.167969 373.003906 L 306.421875 373.003906 L 306.421875 377.140625 L 314.824219 377.140625 L 314.824219 381.253906 L 327.355469 381.253906 L 327.355469 385.472656 L 369.171875 385.472656 L 369.171875 381.203125 L 373.449219 381.203125 L 373.449219 377.089844 L 377.558594 377.089844 L 377.558594 372.949219 L 381.703125 372.949219 L 381.703125 368.671875 L 385.910156 368.671875 L 385.910156 331.015625 L 381.691406 331.015625 L 381.691406 318.453125 Z M 176.808594 209.660156 L 176.808594 222.253906 L 180.910156 222.253906 L 180.910156 239.078125 L 185.054688 239.078125 L 185.054688 251.640625 L 189.328125 251.640625 L 189.328125 259.878906 L 193.441406 259.878906 L 193.441406 268.226562 L 197.582031 268.226562 L 197.582031 259.851562 L 201.890625 259.851562 L 201.890625 255.710938 L 206 255.710938 L 206 247.277344 L 210.144531 247.277344 L 210.144531 243.164062 L 214.449219 243.164062 L 214.449219 239.023438 L 218.5625 239.023438 L 218.5625 234.746094 L 222.675781 234.746094 L 222.675781 230.605469 L 226.980469 230.605469 L 226.980469 226.492188 L 231.125 226.492188 L 231.125 222.1875 L 235.234375 222.1875 L 235.234375 218.042969 L 239.542969 218.042969 L 239.542969 213.929688 L 243.683594 213.929688 L 243.683594 209.625 L 252.085938 209.625 L 252.085938 205.511719 L 256.199219 205.511719 L 256.199219 201.371094 L 260.34375 201.371094 L 260.34375 197.09375 L 268.671875 197.09375 L 268.671875 192.953125 L 260.296875 192.953125 L 260.296875 188.808594 L 252.027344 188.808594 L 252.027344 184.535156 L 239.492188 184.535156 L 239.492188 180.476562 L 197.539062 180.476562 L 197.539062 184.574219 L 189.296875 184.574219 L 189.296875 188.878906 L 184.992188 188.878906 L 184.992188 197.121094 L 180.847656 197.121094 L 180.847656 209.648438 L 176.808594 209.648438 Z M 235.191406 381.199219 L 247.78125 381.199219 L 247.78125 377.085938 L 260.34375 377.085938 L 260.34375 372.941406 L 268.679688 372.941406 L 268.679688 368.636719 L 260.28125 368.636719 L 260.28125 364.523438 L 256.136719 364.523438 L 256.136719 360.382812 L 252.027344 360.382812 L 252.027344 356.105469 L 243.625 356.105469 L 243.625 351.964844 L 239.480469 351.964844 L 239.480469 347.851562 L 235.175781 347.851562 L 235.175781 343.546875 L 231.0625 343.546875 L 231.0625 339.402344 L 226.917969 339.402344 L 226.917969 335.289062 L 222.613281 335.289062 L 222.613281 330.984375 L 218.5 330.984375 L 218.5 326.871094 L 214.390625 326.871094 L 214.390625 322.730469 L 210.082031 322.730469 L 210.082031 314.328125 L 205.941406 314.328125 L 205.941406 310.183594 L 201.828125 310.183594 L 201.828125 305.878906 L 197.523438 305.878906 L 197.523438 297.71875 L 193.378906 297.71875 L 193.378906 305.953125 L 189.265625 305.953125 L 189.265625 314.359375 L 184.992188 314.359375 L 184.992188 326.917969 L 180.847656 326.917969 L 180.847656 343.582031 L 176.808594 343.582031 L 176.808594 356.140625 L 180.894531 356.140625 L 180.894531 368.703125 L 185.039062 368.703125 L 185.039062 377.105469 L 189.34375 377.105469 L 189.34375 381.25 L 197.582031 381.25 L 197.582031 385.46875 L 235.183594 385.46875 L 235.183594 381.1875 Z M 314.773438 184.546875 L 314.773438 188.886719 L 306.367188 188.886719 L 306.367188 193.027344 L 298.171875 193.027344 L 298.171875 197.140625 L 306.429688 197.140625 L 306.429688 201.445312 L 310.703125 201.445312 L 310.703125 205.558594 L 314.816406 205.558594 L 314.816406 209.703125 L 318.957031 209.703125 L 318.957031 213.976562 L 327.390625 213.976562 L 327.390625 218.121094 L 331.503906 218.121094 L 331.503906 222.261719 L 335.8125 222.261719 L 335.8125 226.539062 L 339.921875 226.539062 L 339.921875 230.648438 L 344.066406 230.648438 L 344.066406 234.792969 L 348.339844 234.792969 L 348.339844 239.097656 L 352.484375 239.097656 L 352.484375 247.339844 L 356.625 247.339844 L 356.625 251.644531 L 360.902344 251.644531 L 360.902344 255.757812 L 365.015625 255.757812 L 365.015625 264.191406 L 369.15625 264.191406 L 369.15625 268.230469 L 373.464844 268.230469 L 373.464844 259.832031 L 377.574219 259.832031 L 377.574219 247.273438 L 381.71875 247.273438 L 381.71875 234.738281 L 385.9375 234.738281 L 385.9375 197.105469 L 381.652344 197.105469 L 381.652344 192.960938 L 377.539062 192.960938 L 377.539062 188.820312 L 373.394531 188.820312 L 373.394531 184.542969 L 369.089844 184.542969 L 369.089844 180.402344 L 352.425781 180.402344 L 352.425781 176.34375 L 348.316406 176.34375 L 348.316406 180.460938 L 327.332031 180.460938 L 327.332031 184.542969 L 314.769531 184.542969 Z M 243.652344 285.15625 L 243.652344 289.265625 L 252.085938 289.265625 L 252.085938 293.410156 L 260.328125 293.410156 L 260.328125 297.714844 L 264.632812 297.714844 L 264.632812 301.828125 L 268.777344 301.828125 L 268.777344 305.96875 L 273.050781 305.96875 L 273.050781 314.402344 L 277.195312 314.402344 L 277.195312 322.808594 L 281.304688 322.808594 L 281.304688 339.40625 L 285.613281 339.40625 L 285.613281 322.761719 L 289.722656 322.761719 L 289.722656 310.199219 L 293.867188 310.199219 L 293.867188 305.925781 L 298.171875 305.925781 L 298.171875 301.78125 L 302.285156 301.78125 L 302.285156 297.636719 L 306.429688 297.636719 L 306.429688 293.363281 L 310.734375 293.363281 L 310.734375 289.226562 L 323.265625 289.226562 L 323.265625 285.113281 L 339.867188 285.113281 L 339.867188 280.808594 L 323.21875 280.808594 L 323.21875 276.695312 L 314.785156 276.695312 L 314.785156 272.550781 L 306.382812 272.550781 L 306.382812 268.246094 L 302.238281 268.246094 L 302.238281 264.132812 L 298.097656 264.132812 L 298.097656 259.828125 L 293.820312 259.828125 L 293.820312 255.683594 L 289.679688 255.683594 L 289.679688 243.15625 L 285.566406 243.15625 L 285.566406 226.554688 L 281.261719 226.554688 L 281.261719 239.074219 L 277.148438 239.074219 L 277.148438 251.632812 L 273.003906 251.632812 L 273.003906 259.875 L 268.699219 259.875 L 268.699219 264.179688 L 264.585938 264.179688 L 264.585938 268.324219 L 260.28125 268.324219 L 260.28125 272.597656 L 252.011719 272.597656 L 252.011719 276.742188 L 243.609375 276.742188 L 243.609375 280.851562 L 226.996094 280.851562 L 226.996094 285.160156 L 243.652344 285.160156 Z M 243.652344 285.15625 " fill-opacity="1" fill-rule="nonzero"/></g></svg>