<svg xmlns="http://www.w3.org/2000/svg" xmlns:xlink="http://www.w3.org/1999/xlink" width="755" zoomAndPan="magnify" viewBox="0 0 567 567.000005" height="755" preserveAspectRatio="xMidYMid meet" version="1.0"><defs><clipPath id="8640c5b661"><path d="M 133.695312 172.011719 L 433.167969 172.011719 L 433.167969 393.621094 L 133.695312 393.621094 Z M 133.695312 172.011719 " clip-rule="nonzero"/></clipPath></defs><g clip-path="url(#8640c5b661)"><path fill="#ff66c4" d="M 333.382812 227.492188 L 355.570312 227.492188 L 355.570312 216.398438 L 333.382812 216.398438 Z M 322.289062 238.585938 L 333.382812 238.585938 L 333.382812 227.492188 L 322.289062 227.492188 Z M 233.539062 282.960938 L 211.351562 282.960938 L 211.351562 294.054688 L 233.539062 294.054688 Z M 255.726562 271.867188 L 233.539062 271.867188 L 233.539062 282.960938 L 255.726562 282.960938 Z M 277.914062 260.773438 L 255.726562 260.773438 L 255.726562 271.867188 L 277.914062 271.867188 Z M 300.101562 249.679688 L 277.914062 249.679688 L 277.914062 260.773438 L 300.101562 260.773438 Z M 322.289062 249.679688 L 322.289062 238.585938 L 300.101562 238.585938 L 300.101562 249.679688 Z M 244.632812 327.335938 L 233.539062 327.335938 L 233.539062 349.523438 L 244.632812 349.523438 Z M 255.726562 316.242188 L 244.632812 316.242188 L 244.632812 327.335938 L 255.726562 327.335938 Z M 266.820312 305.148438 L 255.726562 305.148438 L 255.726562 316.242188 L 266.820312 316.242188 Z M 277.914062 294.054688 L 266.820312 294.054688 L 266.820312 305.148438 L 277.914062 305.148438 Z M 300.101562 282.960938 L 277.914062 282.960938 L 277.914062 294.054688 L 300.101562 294.054688 Z M 311.195312 271.867188 L 300.101562 271.867188 L 300.101562 282.960938 L 311.195312 282.960938 Z M 322.289062 260.773438 L 311.195312 260.773438 L 311.195312 271.867188 L 322.289062 271.867188 Z M 344.476562 249.679688 L 322.289062 249.679688 L 322.289062 260.773438 L 344.476562 260.773438 Z M 355.570312 238.585938 L 344.476562 238.585938 L 344.476562 249.679688 L 355.570312 249.679688 Z M 377.757812 227.492188 L 355.570312 227.492188 L 355.570312 238.585938 L 377.757812 238.585938 Z M 377.757812 216.398438 L 377.757812 227.492188 L 388.851562 227.492188 L 388.851562 216.398438 Z M 355.570312 205.304688 L 355.570312 216.398438 L 377.757812 216.398438 L 377.757812 205.304688 Z M 311.195312 205.304688 L 355.570312 205.304688 L 355.570312 194.210938 L 311.195312 194.210938 Z M 266.820312 216.398438 L 311.195312 216.398438 L 311.195312 205.304688 L 266.820312 205.304688 Z M 222.445312 227.492188 L 266.820312 227.492188 L 266.820312 216.398438 L 222.445312 216.398438 Z M 189.164062 238.585938 L 222.445312 238.585938 L 222.445312 227.492188 L 189.164062 227.492188 Z M 144.789062 249.679688 L 189.164062 249.679688 L 189.164062 238.585938 L 144.789062 238.585938 Z M 144.789062 260.773438 L 144.789062 249.679688 L 133.695312 249.679688 L 133.695312 260.773438 Z M 166.976562 271.867188 L 166.976562 260.773438 L 144.789062 260.773438 L 144.789062 271.867188 Z M 189.164062 282.960938 L 189.164062 271.867188 L 166.976562 271.867188 L 166.976562 282.960938 Z M 200.257812 294.054688 L 200.257812 282.960938 L 189.164062 282.960938 L 189.164062 294.054688 Z M 222.445312 371.710938 L 211.351562 371.710938 L 211.351562 294.054688 L 200.257812 294.054688 L 200.257812 382.804688 L 222.445312 382.804688 Z M 244.632812 360.617188 L 233.539062 360.617188 L 233.539062 349.523438 L 222.445312 349.523438 L 222.445312 371.710938 L 244.632812 371.710938 Z M 255.726562 349.523438 L 244.632812 349.523438 L 244.632812 360.617188 L 255.726562 360.617188 Z M 300.101562 349.523438 L 300.101562 338.429688 L 277.914062 338.429688 L 277.914062 327.335938 L 255.726562 327.335938 L 255.726562 349.523438 Z M 322.289062 360.617188 L 322.289062 349.523438 L 300.101562 349.523438 L 300.101562 360.617188 Z M 344.476562 371.710938 L 344.476562 360.617188 L 322.289062 360.617188 L 322.289062 371.710938 Z M 355.570312 382.804688 L 355.570312 371.710938 L 344.476562 371.710938 L 344.476562 382.804688 Z M 377.757812 360.617188 L 366.664062 360.617188 L 366.664062 382.804688 L 355.570312 382.804688 L 355.570312 393.898438 L 377.757812 393.898438 Z M 388.851562 316.242188 L 377.757812 316.242188 L 377.757812 360.617188 L 388.851562 360.617188 Z M 399.945312 282.960938 L 388.851562 282.960938 L 388.851562 316.242188 L 399.945312 316.242188 Z M 411.039062 249.679688 L 399.945312 249.679688 L 399.945312 282.960938 L 411.039062 282.960938 Z M 422.132812 216.398438 L 411.039062 216.398438 L 411.039062 249.679688 L 422.132812 249.679688 Z M 399.945312 172.027344 L 399.945312 183.121094 L 355.570312 183.121094 L 355.570312 194.210938 L 377.757812 194.210938 L 377.757812 205.304688 L 388.851562 205.304688 L 388.851562 216.398438 L 399.945312 216.398438 L 399.945312 205.304688 L 422.132812 205.304688 L 422.132812 216.398438 L 433.226562 216.398438 L 433.226562 172.027344 Z M 399.945312 172.027344 " fill-opacity="1" fill-rule="nonzero"/></g></svg>