<svg width="855" height="855" viewBox="0 0 855 855" fill="none" xmlns="http://www.w3.org/2000/svg">
<path d="M854.626 0H0V854.75H854.626V0Z" fill="#FF0090"/>
<path d="M507.039 612.055H337.52V477.915H230.881V612.055H61.2988V220.464H230.818V349.474H337.456V220.464H506.976V612.055H507.039ZM375.514 574.055H469.044V258.464H375.514V387.474H192.887V258.464H99.3568V574.055H192.887V439.915H375.514V574.055Z" fill="#121616"/>
<path d="M783.005 612.055H613.486V477.915H506.847V612.055H337.328V220.464H506.847V349.474H613.486V220.464H783.005V612.055ZM651.48 574.055H745.01V258.464H651.48V387.474H468.853V258.464H375.323V574.055H468.853V439.915H651.48V574.055Z" fill="#121616"/>
</svg>
