<svg width="856" height="855" viewBox="0 0 856 855" fill="none" xmlns="http://www.w3.org/2000/svg">
<path d="M855.417 0H0.791016V854.75H855.417V0Z" fill="#121616"/>
<path d="M507.829 612.055H338.31V477.915H231.672V612.055H62.1523V220.464H231.672V349.474H338.31V220.464H507.829V612.055ZM376.241 574.055H469.771V258.464H376.241V387.474H193.614V258.464H100.084V574.055H193.614V439.915H376.241V574.055Z" fill="#FF0090"/>
<path d="M783.798 612.055H614.279V477.915H507.64V612.055H338.121V220.464H507.64V349.474H614.279V220.464H783.798V612.055ZM652.273 574.055H745.803V258.464H652.273V387.474H469.646V258.464H376.116V574.055H469.646V439.915H652.273V574.055Z" fill="#FF0090"/>
</svg>
