<svg xmlns="http://www.w3.org/2000/svg" xmlns:xlink="http://www.w3.org/1999/xlink" width="755" zoomAndPan="magnify" viewBox="0 0 567 567.000005" height="755" preserveAspectRatio="xMidYMid meet" version="1.0"><defs><clipPath id="a95eb399b0"><path d="M 143.554688 199.019531 L 423.5625 199.019531 L 423.5625 366.722656 L 143.554688 366.722656 Z M 143.554688 199.019531 " clip-rule="nonzero"/></clipPath><clipPath id="0af6dbfb59"><path d="M 143.554688 226 L 158 226 L 158 255 L 143.554688 255 Z M 143.554688 226 " clip-rule="nonzero"/></clipPath><clipPath id="df44e464d6"><path d="M 171 199.019531 L 214 199.019531 L 214 213 L 171 213 Z M 171 199.019531 " clip-rule="nonzero"/></clipPath><clipPath id="c587d6a16b"><path d="M 143.554688 310 L 158 310 L 158 339 L 143.554688 339 Z M 143.554688 310 " clip-rule="nonzero"/></clipPath><clipPath id="5593e5b4af"><path d="M 171 352 L 214 352 L 214 366.722656 L 171 366.722656 Z M 171 352 " clip-rule="nonzero"/></clipPath><clipPath id="d0e1c402be"><path d="M 409 226 L 423.5625 226 L 423.5625 255 L 409 255 Z M 409 226 " clip-rule="nonzero"/></clipPath><clipPath id="3fff8b6f2d"><path d="M 353 199.019531 L 396 199.019531 L 396 213 L 353 213 Z M 353 199.019531 " clip-rule="nonzero"/></clipPath><clipPath id="7663c3a648"><path d="M 409 310 L 423.5625 310 L 423.5625 339 L 409 339 Z M 409 310 " clip-rule="nonzero"/></clipPath><clipPath id="2857faa569"><path d="M 353 352 L 396 352 L 396 366.722656 L 353 366.722656 Z M 353 352 " clip-rule="nonzero"/></clipPath></defs><g clip-path="url(#a95eb399b0)"><path fill="#f3bd93" d="M 409.558594 268.898438 L 409.558594 254.921875 L 423.558594 254.921875 L 423.558594 226.972656 L 409.558594 226.972656 L 409.558594 212.996094 L 395.558594 212.996094 L 395.558594 199.019531 L 353.558594 199.019531 L 353.558594 212.996094 L 339.558594 212.996094 L 339.558594 240.945312 L 227.558594 240.945312 L 227.558594 212.996094 L 213.558594 212.996094 L 213.558594 199.019531 L 171.558594 199.019531 L 171.558594 212.996094 L 157.558594 212.996094 L 157.558594 226.972656 L 143.558594 226.972656 L 143.558594 254.921875 L 157.558594 254.921875 L 157.558594 268.898438 L 171.558594 268.898438 L 171.558594 296.847656 L 157.558594 296.847656 L 157.558594 310.824219 L 143.558594 310.824219 L 143.558594 338.773438 L 157.558594 338.773438 L 157.558594 352.75 L 171.558594 352.75 L 171.558594 366.722656 L 213.558594 366.722656 L 213.558594 352.75 L 227.558594 352.75 L 227.558594 324.796875 L 339.558594 324.796875 L 339.558594 352.75 L 353.558594 352.75 L 353.558594 366.722656 L 395.558594 366.722656 L 395.558594 352.75 L 409.558594 352.75 L 409.558594 338.773438 L 423.558594 338.773438 L 423.558594 310.824219 L 409.558594 310.824219 L 409.558594 296.847656 L 395.558594 296.847656 L 395.558594 268.898438 Z M 199.558594 240.945312 L 185.558594 240.945312 L 185.558594 226.972656 L 199.558594 226.972656 Z M 199.558594 240.945312 " fill-opacity="1" fill-rule="nonzero"/></g><path fill="#eaac81" d="M 185.558594 254.921875 L 199.558594 254.921875 L 199.558594 268.898438 L 185.558594 268.898438 Z M 185.558594 254.921875 " fill-opacity="1" fill-rule="nonzero"/><path fill="#eaac81" d="M 199.558594 268.898438 L 213.558594 268.898438 L 213.558594 296.847656 L 199.558594 296.847656 Z M 199.558594 268.898438 " fill-opacity="1" fill-rule="nonzero"/><path fill="#eaac81" d="M 185.558594 296.847656 L 199.558594 296.847656 L 199.558594 310.824219 L 185.558594 310.824219 Z M 185.558594 296.847656 " fill-opacity="1" fill-rule="nonzero"/><path fill="#eaac81" d="M 171.558594 310.824219 L 185.558594 310.824219 L 185.558594 338.773438 L 171.558594 338.773438 Z M 171.558594 310.824219 " fill-opacity="1" fill-rule="nonzero"/><path fill="#eaac81" d="M 227.558594 296.847656 L 339.558594 296.847656 L 339.558594 310.824219 L 227.558594 310.824219 Z M 227.558594 296.847656 " fill-opacity="1" fill-rule="nonzero"/><path fill="#eaac81" d="M 381.558594 254.921875 L 395.558594 254.921875 L 395.558594 268.898438 L 381.558594 268.898438 Z M 381.558594 254.921875 " fill-opacity="1" fill-rule="nonzero"/><path fill="#eaac81" d="M 367.558594 268.898438 L 381.558594 268.898438 L 381.558594 296.847656 L 367.558594 296.847656 Z M 367.558594 268.898438 " fill-opacity="1" fill-rule="nonzero"/><path fill="#eaac81" d="M 381.558594 296.847656 L 395.558594 296.847656 L 395.558594 310.824219 L 381.558594 310.824219 Z M 381.558594 296.847656 " fill-opacity="1" fill-rule="nonzero"/><path fill="#eaac81" d="M 395.558594 310.824219 L 409.558594 310.824219 L 409.558594 338.773438 L 395.558594 338.773438 Z M 395.558594 310.824219 " fill-opacity="1" fill-rule="nonzero"/><path fill="#eaac81" d="M 381.558594 338.773438 L 395.558594 338.773438 L 395.558594 352.75 L 381.558594 352.75 Z M 381.558594 338.773438 " fill-opacity="1" fill-rule="nonzero"/><path fill="#e7a477" d="M 171.558594 254.921875 L 185.558594 254.921875 L 185.558594 268.898438 L 171.558594 268.898438 Z M 171.558594 254.921875 " fill-opacity="1" fill-rule="nonzero"/><path fill="#e7a477" d="M 185.558594 268.898438 L 199.558594 268.898438 L 199.558594 296.847656 L 185.558594 296.847656 Z M 185.558594 268.898438 " fill-opacity="1" fill-rule="nonzero"/><path fill="#e7a477" d="M 171.558594 296.847656 L 185.558594 296.847656 L 185.558594 310.824219 L 171.558594 310.824219 Z M 171.558594 296.847656 " fill-opacity="1" fill-rule="nonzero"/><path fill="#e7a477" d="M 157.558594 310.824219 L 171.558594 310.824219 L 171.558594 338.773438 L 157.558594 338.773438 Z M 157.558594 310.824219 " fill-opacity="1" fill-rule="nonzero"/><path fill="#e7a477" d="M 171.558594 338.773438 L 185.558594 338.773438 L 185.558594 352.75 L 171.558594 352.75 Z M 171.558594 338.773438 " fill-opacity="1" fill-rule="nonzero"/><path fill="#e7a477" d="M 367.558594 338.773438 L 381.558594 338.773438 L 381.558594 352.75 L 367.558594 352.75 Z M 367.558594 338.773438 " fill-opacity="1" fill-rule="nonzero"/><path fill="#e7a477" d="M 227.558594 254.921875 L 339.558594 254.921875 L 339.558594 268.898438 L 227.558594 268.898438 Z M 227.558594 254.921875 " fill-opacity="1" fill-rule="nonzero"/><path fill="#000000" d="M 157.558594 254.921875 L 171.558594 254.921875 L 171.558594 268.898438 L 157.558594 268.898438 Z M 157.558594 254.921875 " fill-opacity="1" fill-rule="nonzero"/><g clip-path="url(#0af6dbfb59)"><path fill="#000000" d="M 143.558594 226.972656 L 157.558594 226.972656 L 157.558594 254.921875 L 143.558594 254.921875 Z M 143.558594 226.972656 " fill-opacity="1" fill-rule="nonzero"/></g><path fill="#000000" d="M 157.558594 212.996094 L 171.558594 212.996094 L 171.558594 226.972656 L 157.558594 226.972656 Z M 157.558594 212.996094 " fill-opacity="1" fill-rule="nonzero"/><g clip-path="url(#df44e464d6)"><path fill="#000000" d="M 171.558594 199.019531 L 213.558594 199.019531 L 213.558594 212.996094 L 171.558594 212.996094 Z M 171.558594 199.019531 " fill-opacity="1" fill-rule="nonzero"/></g><path fill="#000000" d="M 171.558594 268.898438 L 185.558594 268.898438 L 185.558594 296.847656 L 171.558594 296.847656 Z M 171.558594 268.898438 " fill-opacity="1" fill-rule="nonzero"/><path fill="#000000" d="M 157.558594 296.847656 L 171.558594 296.847656 L 171.558594 310.824219 L 157.558594 310.824219 Z M 157.558594 296.847656 " fill-opacity="1" fill-rule="nonzero"/><g clip-path="url(#c587d6a16b)"><path fill="#000000" d="M 143.558594 310.824219 L 157.558594 310.824219 L 157.558594 338.773438 L 143.558594 338.773438 Z M 143.558594 310.824219 " fill-opacity="1" fill-rule="nonzero"/></g><path fill="#000000" d="M 157.558594 338.773438 L 171.558594 338.773438 L 171.558594 352.75 L 157.558594 352.75 Z M 157.558594 338.773438 " fill-opacity="1" fill-rule="nonzero"/><g clip-path="url(#5593e5b4af)"><path fill="#000000" d="M 171.558594 352.75 L 213.558594 352.75 L 213.558594 366.722656 L 171.558594 366.722656 Z M 171.558594 352.75 " fill-opacity="1" fill-rule="nonzero"/></g><path fill="#000000" d="M 381.558594 268.898438 L 395.558594 268.898438 L 395.558594 296.847656 L 381.558594 296.847656 Z M 381.558594 268.898438 " fill-opacity="1" fill-rule="nonzero"/><path fill="#000000" d="M 395.558594 254.921875 L 409.558594 254.921875 L 409.558594 268.898438 L 395.558594 268.898438 Z M 395.558594 254.921875 " fill-opacity="1" fill-rule="nonzero"/><g clip-path="url(#d0e1c402be)"><path fill="#000000" d="M 409.558594 226.972656 L 423.558594 226.972656 L 423.558594 254.921875 L 409.558594 254.921875 Z M 409.558594 226.972656 " fill-opacity="1" fill-rule="nonzero"/></g><path fill="#000000" d="M 395.558594 212.996094 L 409.558594 212.996094 L 409.558594 226.972656 L 395.558594 226.972656 Z M 395.558594 212.996094 " fill-opacity="1" fill-rule="nonzero"/><g clip-path="url(#3fff8b6f2d)"><path fill="#000000" d="M 353.558594 199.019531 L 395.558594 199.019531 L 395.558594 212.996094 L 353.558594 212.996094 Z M 353.558594 199.019531 " fill-opacity="1" fill-rule="nonzero"/></g><path fill="#000000" d="M 395.558594 296.847656 L 409.558594 296.847656 L 409.558594 310.824219 L 395.558594 310.824219 Z M 395.558594 296.847656 " fill-opacity="1" fill-rule="nonzero"/><g clip-path="url(#7663c3a648)"><path fill="#000000" d="M 409.558594 310.824219 L 423.558594 310.824219 L 423.558594 338.773438 L 409.558594 338.773438 Z M 409.558594 310.824219 " fill-opacity="1" fill-rule="nonzero"/></g><path fill="#000000" d="M 395.558594 338.773438 L 409.558594 338.773438 L 409.558594 352.75 L 395.558594 352.75 Z M 395.558594 338.773438 " fill-opacity="1" fill-rule="nonzero"/><path fill="#000000" d="M 185.558594 226.972656 L 199.558594 226.972656 L 199.558594 240.945312 L 185.558594 240.945312 Z M 185.558594 226.972656 " fill-opacity="1" fill-rule="nonzero"/><path fill="#eaac81" d="M 213.558594 240.945312 L 227.558594 240.945312 L 227.558594 254.921875 L 213.558594 254.921875 Z M 213.558594 240.945312 " fill-opacity="1" fill-rule="nonzero"/><path fill="#eaac81" d="M 339.558594 240.945312 L 353.558594 240.945312 L 353.558594 254.921875 L 339.558594 254.921875 Z M 339.558594 240.945312 " fill-opacity="1" fill-rule="nonzero"/><path fill="#eaac81" d="M 213.558594 310.824219 L 227.558594 310.824219 L 227.558594 324.796875 L 213.558594 324.796875 Z M 213.558594 310.824219 " fill-opacity="1" fill-rule="nonzero"/><path fill="#000000" d="M 213.558594 212.996094 L 227.558594 212.996094 L 227.558594 240.945312 L 213.558594 240.945312 Z M 213.558594 212.996094 " fill-opacity="1" fill-rule="nonzero"/><path fill="#000000" d="M 227.558594 240.945312 L 339.558594 240.945312 L 339.558594 254.921875 L 227.558594 254.921875 Z M 227.558594 240.945312 " fill-opacity="1" fill-rule="nonzero"/><path fill="#000000" d="M 213.558594 324.796875 L 227.558594 324.796875 L 227.558594 352.75 L 213.558594 352.75 Z M 213.558594 324.796875 " fill-opacity="1" fill-rule="nonzero"/><path fill="#000000" d="M 227.558594 310.824219 L 339.558594 310.824219 L 339.558594 324.796875 L 227.558594 324.796875 Z M 227.558594 310.824219 " fill-opacity="1" fill-rule="nonzero"/><path fill="#eaac81" d="M 171.558594 226.972656 L 157.558594 226.972656 L 157.558594 254.921875 L 185.558594 254.921875 L 185.558594 226.972656 L 213.558594 226.972656 L 213.558594 212.996094 L 171.558594 212.996094 Z M 171.558594 226.972656 " fill-opacity="1" fill-rule="nonzero"/><path fill="#eaac81" d="M 353.558594 310.824219 L 339.558594 310.824219 L 339.558594 352.75 L 367.558594 352.75 L 367.558594 324.796875 L 353.558594 324.796875 Z M 353.558594 310.824219 " fill-opacity="1" fill-rule="nonzero"/><path fill="#eaac81" d="M 395.558594 226.972656 L 395.558594 212.996094 L 339.558594 212.996094 L 339.558594 240.945312 L 353.558594 240.945312 L 353.558594 226.972656 L 381.558594 226.972656 L 381.558594 240.945312 L 395.558594 240.945312 L 395.558594 254.921875 L 409.558594 254.921875 L 409.558594 226.972656 Z M 395.558594 226.972656 " fill-opacity="1" fill-rule="nonzero"/><path fill="#eaac81" d="M 199.558594 338.773438 L 185.558594 338.773438 L 185.558594 352.75 L 213.558594 352.75 L 213.558594 324.796875 L 199.558594 324.796875 Z M 199.558594 338.773438 " fill-opacity="1" fill-rule="nonzero"/><path fill="#000000" d="M 339.558594 324.796875 L 353.558594 324.796875 L 353.558594 352.75 L 339.558594 352.75 Z M 339.558594 324.796875 " fill-opacity="1" fill-rule="nonzero"/><path fill="#000000" d="M 339.558594 212.996094 L 353.558594 212.996094 L 353.558594 240.945312 L 339.558594 240.945312 Z M 339.558594 212.996094 " fill-opacity="1" fill-rule="nonzero"/><g clip-path="url(#2857faa569)"><path fill="#000000" d="M 353.558594 352.75 L 395.558594 352.75 L 395.558594 366.722656 L 353.558594 366.722656 Z M 353.558594 352.75 " fill-opacity="1" fill-rule="nonzero"/></g></svg>