<svg xmlns="http://www.w3.org/2000/svg" xmlns:xlink="http://www.w3.org/1999/xlink" width="755" zoomAndPan="magnify" viewBox="0 0 567 567.000005" height="755" preserveAspectRatio="xMidYMid meet" version="1.0"><defs><clipPath id="a07771caf4"><path d="M 157.707031 170 L 409.261719 170 L 409.261719 396 L 157.707031 396 Z M 157.707031 170 " clip-rule="nonzero"/></clipPath><clipPath id="61208ae3ab"><path d="M 157.707031 239 L 409.261719 239 L 409.261719 396 L 157.707031 396 Z M 157.707031 239 " clip-rule="nonzero"/></clipPath></defs><g clip-path="url(#a07771caf4)"><path fill="#ff99bb" d="M 157.707031 259.222656 L 173.257812 259.222656 L 173.257812 272.503906 L 157.707031 272.503906 Z M 191.941406 272.503906 L 206.84375 272.503906 L 206.84375 259.222656 L 191.941406 259.222656 Z M 175.964844 256.515625 L 189.234375 256.515625 L 189.234375 239.433594 L 175.964844 239.433594 Z M 175.964844 291.207031 L 189.234375 291.207031 L 189.234375 275.210938 L 175.964844 275.210938 Z M 360.09375 377.222656 L 375.644531 377.222656 L 375.644531 363.941406 L 360.09375 363.941406 Z M 394.328125 363.949219 L 394.328125 377.226562 L 409.230469 377.226562 L 409.230469 363.949219 Z M 378.351562 361.234375 L 391.621094 361.234375 L 391.621094 344.152344 L 378.351562 344.152344 Z M 378.351562 395.929688 L 391.621094 395.929688 L 391.621094 379.933594 L 378.351562 379.933594 Z M 373.015625 266.910156 C 354.519531 280.96875 350.925781 280.964844 332.402344 266.863281 C 346.5 285.390625 346.503906 288.984375 332.441406 307.480469 C 350.9375 293.421875 354.53125 293.421875 373.0625 307.527344 C 358.960938 289 358.960938 285.40625 373.015625 266.910156 Z M 228.585938 170.058594 C 210.089844 184.113281 206.496094 184.109375 187.96875 170.011719 C 202.066406 188.539062 202.070312 192.132812 188.011719 210.625 C 206.503906 196.570312 210.097656 196.570312 228.632812 210.671875 C 214.53125 192.148438 214.527344 188.554688 228.585938 170.058594 Z M 213.179688 379.429688 L 231.957031 379.429688 L 231.957031 360.652344 L 213.179688 360.652344 Z M 375 224.757812 L 393.777344 224.757812 L 393.777344 205.980469 L 375 205.980469 Z M 311.121094 349.328125 L 311.121094 334.351562 L 296.144531 334.351562 L 296.144531 319.378906 L 295.671875 319.378906 L 295.671875 304.402344 L 280.695312 304.402344 L 280.695312 244.5 L 295.671875 244.5 L 295.671875 214.539062 L 310.644531 214.539062 L 310.644531 199.5625 L 340.601562 199.5625 L 340.601562 184.585938 L 280.695312 184.585938 L 280.695312 199.5625 L 265.722656 199.5625 L 265.722656 214.539062 L 250.746094 214.539062 L 250.746094 229.511719 L 235.773438 229.511719 L 235.773438 319.367188 L 251.222656 319.367188 L 251.222656 334.34375 L 266.195312 334.34375 L 266.195312 349.316406 L 281.171875 349.316406 L 281.171875 364.292969 L 341.070312 364.292969 L 341.070312 349.316406 L 311.121094 349.316406 Z M 311.121094 349.328125 " fill-opacity="1" fill-rule="nonzero"/></g><g clip-path="url(#61208ae3ab)"><path fill="#ffc5dd" d="M 157.707031 259.222656 L 173.257812 259.222656 L 173.257812 272.503906 L 157.707031 272.503906 Z M 191.941406 272.503906 L 206.84375 272.503906 L 206.84375 259.222656 L 191.941406 259.222656 Z M 175.964844 256.515625 L 189.234375 256.515625 L 189.234375 239.433594 L 175.964844 239.433594 Z M 175.964844 291.207031 L 189.234375 291.207031 L 189.234375 275.210938 L 175.964844 275.210938 Z M 360.09375 377.222656 L 375.644531 377.222656 L 375.644531 363.941406 L 360.09375 363.941406 Z M 394.328125 363.949219 L 394.328125 377.226562 L 409.230469 377.226562 L 409.230469 363.949219 Z M 378.351562 361.234375 L 391.621094 361.234375 L 391.621094 344.152344 L 378.351562 344.152344 Z M 378.351562 395.929688 L 391.621094 395.929688 L 391.621094 379.933594 L 378.351562 379.933594 Z M 378.351562 395.929688 " fill-opacity="1" fill-rule="nonzero"/></g><path fill="#e4c1f4" d="M 213.179688 360.65625 L 231.957031 360.65625 L 231.957031 379.433594 L 213.179688 379.433594 Z M 375 205.980469 L 375 224.757812 L 393.777344 224.757812 L 393.777344 205.980469 Z M 375 205.980469 " fill-opacity="1" fill-rule="nonzero"/><path fill="#38b6ff" d="M 373.0625 307.527344 C 354.535156 293.429688 350.941406 293.421875 332.441406 307.480469 C 346.503906 288.984375 346.5 285.390625 332.402344 266.863281 C 350.925781 280.964844 354.519531 280.96875 373.015625 266.910156 C 358.960938 285.40625 358.960938 289 373.0625 307.527344 Z M 228.585938 170.058594 C 210.089844 184.113281 206.496094 184.109375 187.96875 170.011719 C 202.066406 188.539062 202.070312 192.132812 188.011719 210.625 C 206.503906 196.570312 210.097656 196.570312 228.632812 210.671875 C 214.53125 192.148438 214.527344 188.554688 228.585938 170.058594 Z M 281.164062 349.328125 L 281.164062 364.300781 L 311.113281 364.300781 L 311.113281 349.328125 Z M 266.191406 334.347656 L 266.191406 349.320312 L 281.164062 349.320312 L 281.164062 334.347656 Z M 251.214844 319.371094 L 251.214844 334.347656 L 266.191406 334.347656 L 266.191406 319.371094 Z M 235.765625 319.371094 L 250.742188 319.371094 L 250.742188 304.398438 L 235.765625 304.398438 Z M 235.765625 319.371094 " fill-opacity="1" fill-rule="nonzero"/></svg>