<svg xmlns="http://www.w3.org/2000/svg" xmlns:xlink="http://www.w3.org/1999/xlink" width="755" zoomAndPan="magnify" viewBox="0 0 567 567.000005" height="755" preserveAspectRatio="xMidYMid meet" version="1.0"><defs><clipPath id="59b7c73202"><path d="M 101.484375 166.878906 L 465.34375 166.878906 L 465.34375 398.96875 L 101.484375 398.96875 Z M 101.484375 166.878906 " clip-rule="nonzero"/></clipPath></defs><g clip-path="url(#59b7c73202)"><path fill="#ff66c4" d="M 252.085938 273.550781 L 277.1875 273.550781 L 277.1875 298.652344 L 252.085938 298.652344 Z M 283.460938 242.175781 L 308.5625 242.175781 L 308.5625 267.277344 L 283.460938 267.277344 Z M 252.085938 242.175781 L 277.1875 242.175781 L 277.1875 267.277344 L 252.085938 267.277344 Z M 226.988281 223.351562 L 220.710938 223.351562 L 220.710938 229.628906 L 208.164062 229.628906 L 208.164062 235.902344 L 214.4375 235.902344 L 214.4375 248.453125 L 220.710938 248.453125 L 220.710938 235.902344 L 233.261719 235.902344 L 233.261719 229.628906 L 226.988281 229.628906 Z M 233.261719 210.800781 L 226.988281 210.800781 L 226.988281 223.351562 L 233.261719 223.351562 Z M 239.535156 204.527344 L 233.261719 204.527344 L 233.261719 210.800781 L 239.535156 210.800781 Z M 245.8125 191.976562 L 239.535156 191.976562 L 239.535156 204.527344 L 245.8125 204.527344 Z M 252.085938 185.703125 L 245.8125 185.703125 L 245.8125 191.976562 L 252.085938 191.976562 Z M 258.363281 210.800781 L 252.085938 210.800781 L 252.085938 229.628906 L 258.363281 229.628906 Z M 264.636719 191.976562 L 258.363281 191.976562 L 258.363281 210.800781 L 264.636719 210.800781 Z M 264.636719 179.429688 L 264.636719 191.976562 L 270.910156 191.976562 L 270.910156 179.429688 Z M 245.8125 179.429688 L 252.085938 179.429688 L 252.085938 185.703125 L 258.363281 185.703125 L 258.363281 179.429688 L 264.636719 179.429688 L 264.636719 173.152344 L 245.8125 173.152344 Z M 233.261719 185.703125 L 245.8125 185.703125 L 245.8125 179.429688 L 233.261719 179.429688 Z M 226.988281 191.976562 L 233.261719 191.976562 L 233.261719 185.703125 L 226.988281 185.703125 Z M 220.710938 198.253906 L 226.988281 198.253906 L 226.988281 191.976562 L 220.710938 191.976562 Z M 214.4375 204.527344 L 220.710938 204.527344 L 220.710938 198.253906 L 214.4375 198.253906 Z M 208.164062 210.800781 L 214.4375 210.800781 L 214.4375 204.527344 L 208.164062 204.527344 Z M 195.613281 235.902344 L 201.886719 235.902344 L 201.886719 229.628906 L 208.164062 229.628906 L 208.164062 210.800781 L 201.886719 210.800781 L 201.886719 223.351562 L 195.613281 223.351562 Z M 189.335938 254.726562 L 195.613281 254.726562 L 195.613281 235.902344 L 189.335938 235.902344 Z M 226.988281 317.476562 L 226.988281 330.027344 L 233.261719 330.027344 L 233.261719 317.476562 Z M 208.164062 311.203125 L 220.710938 311.203125 L 220.710938 317.476562 L 226.988281 317.476562 L 226.988281 311.203125 L 233.261719 311.203125 L 233.261719 304.925781 L 220.710938 304.925781 L 220.710938 292.375 L 214.4375 292.375 L 214.4375 304.925781 L 208.164062 304.925781 Z M 208.164062 330.027344 L 208.164062 311.203125 L 201.886719 311.203125 L 201.886719 304.925781 L 195.613281 304.925781 L 195.613281 317.476562 L 201.886719 317.476562 L 201.886719 330.027344 Z M 214.4375 336.300781 L 214.4375 330.027344 L 208.164062 330.027344 L 208.164062 336.300781 Z M 189.335938 355.125 L 164.238281 355.125 L 164.238281 361.402344 L 189.335938 361.402344 Z M 201.886719 348.851562 L 189.335938 348.851562 L 189.335938 355.125 L 201.886719 355.125 Z M 214.4375 342.578125 L 201.886719 342.578125 L 201.886719 348.851562 L 214.4375 348.851562 Z M 233.261719 336.300781 L 214.4375 336.300781 L 214.4375 342.578125 L 233.261719 342.578125 Z M 245.8125 330.027344 L 233.261719 330.027344 L 233.261719 336.300781 L 245.8125 336.300781 Z M 270.910156 317.476562 L 258.363281 317.476562 L 258.363281 311.203125 L 252.085938 311.203125 L 252.085938 323.75 L 245.8125 323.75 L 245.8125 330.027344 L 258.363281 330.027344 L 258.363281 323.75 L 270.910156 323.75 Z M 277.1875 311.203125 L 270.910156 311.203125 L 270.910156 317.476562 L 277.1875 317.476562 Z M 308.5625 292.375 L 302.285156 292.375 L 302.285156 298.652344 L 308.5625 298.652344 Z M 333.660156 279.828125 L 327.386719 279.828125 L 327.386719 286.101562 L 333.660156 286.101562 Z M 302.285156 210.800781 L 302.285156 229.628906 L 308.5625 229.628906 L 308.5625 210.800781 Z M 296.011719 191.976562 L 296.011719 210.800781 L 302.285156 210.800781 L 302.285156 191.976562 Z M 296.011719 179.429688 L 289.738281 179.429688 L 289.738281 191.976562 L 296.011719 191.976562 Z M 352.484375 210.800781 L 352.484375 204.527344 L 346.210938 204.527344 L 346.210938 210.800781 Z M 314.835938 191.976562 L 314.835938 185.703125 L 308.5625 185.703125 L 308.5625 191.976562 Z M 321.109375 204.527344 L 321.109375 191.976562 L 314.835938 191.976562 L 314.835938 204.527344 Z M 327.386719 210.800781 L 327.386719 204.527344 L 321.109375 204.527344 L 321.109375 210.800781 Z M 333.660156 223.351562 L 333.660156 210.800781 L 327.386719 210.800781 L 327.386719 223.351562 Z M 352.484375 229.628906 L 339.9375 229.628906 L 339.9375 223.351562 L 333.660156 223.351562 L 333.660156 229.628906 L 327.386719 229.628906 L 327.386719 235.902344 L 339.9375 235.902344 L 339.9375 248.453125 L 346.210938 248.453125 L 346.210938 235.902344 L 352.484375 235.902344 Z M 365.035156 235.902344 L 365.035156 223.351562 L 358.761719 223.351562 L 358.761719 210.800781 L 352.484375 210.800781 L 352.484375 229.628906 L 358.761719 229.628906 L 358.761719 235.902344 Z M 377.585938 248.453125 L 371.3125 248.453125 L 371.3125 235.902344 L 365.035156 235.902344 L 365.035156 261.003906 L 371.3125 261.003906 L 371.3125 254.726562 L 377.585938 254.726562 Z M 383.859375 242.175781 L 377.585938 242.175781 L 377.585938 248.453125 L 383.859375 248.453125 Z M 390.136719 235.902344 L 383.859375 235.902344 L 383.859375 242.175781 L 390.136719 242.175781 Z M 396.410156 229.628906 L 390.136719 229.628906 L 390.136719 235.902344 L 396.410156 235.902344 Z M 402.683594 223.351562 L 396.410156 223.351562 L 396.410156 229.628906 L 402.683594 229.628906 Z M 408.960938 217.078125 L 402.683594 217.078125 L 402.683594 223.351562 L 408.960938 223.351562 Z M 415.234375 210.800781 L 408.960938 210.800781 L 408.960938 217.078125 L 415.234375 217.078125 Z M 421.511719 204.527344 L 415.234375 204.527344 L 415.234375 210.800781 L 421.511719 210.800781 Z M 427.785156 198.253906 L 421.511719 198.253906 L 421.511719 204.527344 L 427.785156 204.527344 Z M 427.785156 179.429688 L 427.785156 198.253906 L 434.058594 198.253906 L 434.058594 179.429688 Z M 296.011719 348.851562 L 289.738281 348.851562 L 289.738281 361.402344 L 296.011719 361.402344 Z M 314.835938 348.851562 L 308.5625 348.851562 L 308.5625 355.125 L 314.835938 355.125 Z M 321.109375 336.300781 L 314.835938 336.300781 L 314.835938 348.851562 L 321.109375 348.851562 Z M 327.386719 330.027344 L 321.109375 330.027344 L 321.109375 336.300781 L 327.386719 336.300781 Z M 333.660156 317.476562 L 327.386719 317.476562 L 327.386719 330.027344 L 333.660156 330.027344 Z M 327.386719 311.203125 L 333.660156 311.203125 L 333.660156 317.476562 L 339.9375 317.476562 L 339.9375 311.203125 L 352.484375 311.203125 L 352.484375 304.925781 L 346.210938 304.925781 L 346.210938 298.652344 L 339.9375 298.652344 L 339.9375 304.925781 L 327.386719 304.925781 Z M 314.835938 317.476562 L 327.386719 317.476562 L 327.386719 311.203125 L 314.835938 311.203125 Z M 308.5625 323.75 L 314.835938 323.75 L 314.835938 317.476562 L 308.5625 317.476562 Z M 283.460938 336.300781 L 296.011719 336.300781 L 296.011719 348.851562 L 302.285156 348.851562 L 302.285156 330.027344 L 308.5625 330.027344 L 308.5625 323.75 L 296.011719 323.75 L 296.011719 330.027344 L 283.460938 330.027344 Z M 132.863281 361.402344 L 132.863281 367.675781 L 157.964844 367.675781 L 157.964844 361.402344 Z M 132.863281 348.851562 L 126.589844 348.851562 L 126.589844 361.402344 L 132.863281 361.402344 Z M 176.789062 298.652344 L 183.0625 298.652344 L 183.0625 292.375 L 176.789062 292.375 Z M 170.511719 304.925781 L 176.789062 304.925781 L 176.789062 298.652344 L 170.511719 298.652344 Z M 157.964844 311.203125 L 170.511719 311.203125 L 170.511719 304.925781 L 157.964844 304.925781 Z M 151.6875 317.476562 L 157.964844 317.476562 L 157.964844 311.203125 L 151.6875 311.203125 Z M 145.414062 323.75 L 151.6875 323.75 L 151.6875 317.476562 L 145.414062 317.476562 Z M 139.136719 330.027344 L 145.414062 330.027344 L 145.414062 323.75 L 139.136719 323.75 Z M 126.589844 342.578125 L 132.863281 342.578125 L 132.863281 348.851562 L 139.136719 348.851562 L 139.136719 330.027344 L 132.863281 330.027344 L 132.863281 336.300781 L 126.589844 336.300781 Z M 120.3125 348.851562 L 126.589844 348.851562 L 126.589844 342.578125 L 120.3125 342.578125 Z M 114.039062 355.125 L 120.3125 355.125 L 120.3125 348.851562 L 114.039062 348.851562 Z M 107.761719 367.675781 L 114.039062 367.675781 L 114.039062 355.125 L 107.761719 355.125 Z M 107.761719 392.777344 L 107.761719 367.675781 L 101.488281 367.675781 L 101.488281 392.777344 Z M 139.136719 392.777344 L 107.761719 392.777344 L 107.761719 399.050781 L 139.136719 399.050781 Z M 164.238281 386.5 L 139.136719 386.5 L 139.136719 392.777344 L 164.238281 392.777344 Z M 189.335938 380.226562 L 164.238281 380.226562 L 164.238281 386.5 L 189.335938 386.5 Z M 201.886719 373.949219 L 189.335938 373.949219 L 189.335938 380.226562 L 201.886719 380.226562 Z M 214.4375 367.675781 L 201.886719 367.675781 L 201.886719 373.949219 L 214.4375 373.949219 Z M 233.261719 361.402344 L 214.4375 361.402344 L 214.4375 367.675781 L 233.261719 367.675781 Z M 245.8125 361.402344 L 245.8125 355.125 L 233.261719 355.125 L 233.261719 361.402344 Z M 264.636719 367.675781 L 264.636719 361.402344 L 258.363281 361.402344 L 258.363281 348.851562 L 264.636719 348.851562 L 264.636719 361.402344 L 270.910156 361.402344 L 270.910156 342.578125 L 252.085938 342.578125 L 252.085938 348.851562 L 245.8125 348.851562 L 245.8125 355.125 L 252.085938 355.125 L 252.085938 361.402344 L 245.8125 361.402344 L 245.8125 367.675781 Z M 296.011719 367.675781 L 289.738281 367.675781 L 289.738281 361.402344 L 283.460938 361.402344 L 283.460938 336.300781 L 270.910156 336.300781 L 270.910156 342.578125 L 277.1875 342.578125 L 277.1875 361.402344 L 270.910156 361.402344 L 270.910156 367.675781 L 264.636719 367.675781 L 264.636719 373.949219 L 296.011719 373.949219 Z M 314.835938 361.402344 L 308.5625 361.402344 L 308.5625 355.125 L 302.285156 355.125 L 302.285156 361.402344 L 296.011719 361.402344 L 296.011719 367.675781 L 314.835938 367.675781 Z M 327.386719 355.125 L 314.835938 355.125 L 314.835938 361.402344 L 327.386719 361.402344 Z M 333.660156 348.851562 L 327.386719 348.851562 L 327.386719 355.125 L 333.660156 355.125 Z M 339.9375 342.578125 L 333.660156 342.578125 L 333.660156 348.851562 L 339.9375 348.851562 Z M 346.210938 336.300781 L 339.9375 336.300781 L 339.9375 342.578125 L 346.210938 342.578125 Z M 352.484375 330.027344 L 346.210938 330.027344 L 346.210938 336.300781 L 352.484375 336.300781 Z M 365.035156 304.925781 L 358.761719 304.925781 L 358.761719 311.203125 L 352.484375 311.203125 L 352.484375 330.027344 L 358.761719 330.027344 L 358.761719 317.476562 L 365.035156 317.476562 Z M 377.585938 279.828125 L 365.035156 279.828125 L 365.035156 286.101562 L 358.761719 286.101562 L 358.761719 292.375 L 346.210938 292.375 L 346.210938 298.652344 L 365.035156 298.652344 L 365.035156 304.925781 L 371.3125 304.925781 L 371.3125 286.101562 L 377.585938 286.101562 Z M 390.136719 273.550781 L 377.585938 273.550781 L 377.585938 279.828125 L 390.136719 279.828125 Z M 396.410156 267.277344 L 390.136719 267.277344 L 390.136719 273.550781 L 396.410156 273.550781 Z M 402.683594 261.003906 L 396.410156 261.003906 L 396.410156 267.277344 L 402.683594 267.277344 Z M 408.960938 254.726562 L 402.683594 254.726562 L 402.683594 261.003906 L 408.960938 261.003906 Z M 415.234375 248.453125 L 408.960938 248.453125 L 408.960938 254.726562 L 415.234375 254.726562 Z M 421.511719 242.175781 L 415.234375 242.175781 L 415.234375 248.453125 L 421.511719 248.453125 Z M 427.785156 235.902344 L 421.511719 235.902344 L 421.511719 242.175781 L 427.785156 242.175781 Z M 434.058594 229.628906 L 427.785156 229.628906 L 427.785156 235.902344 L 434.058594 235.902344 Z M 440.335938 223.351562 L 434.058594 223.351562 L 434.058594 229.628906 L 440.335938 229.628906 Z M 452.886719 210.800781 L 446.609375 210.800781 L 446.609375 217.078125 L 440.335938 217.078125 L 440.335938 223.351562 L 452.886719 223.351562 Z M 459.160156 204.527344 L 452.886719 204.527344 L 452.886719 210.800781 L 459.160156 210.800781 Z M 459.160156 179.429688 L 459.160156 204.527344 L 465.433594 204.527344 L 465.433594 179.429688 Z M 452.886719 173.152344 L 452.886719 179.429688 L 459.160156 179.429688 L 459.160156 173.152344 Z M 396.410156 179.429688 L 427.785156 179.429688 L 427.785156 173.152344 L 452.886719 173.152344 L 452.886719 166.878906 L 421.511719 166.878906 L 421.511719 173.152344 L 396.410156 173.152344 Z M 377.585938 185.703125 L 396.410156 185.703125 L 396.410156 179.429688 L 377.585938 179.429688 Z M 358.761719 191.976562 L 377.585938 191.976562 L 377.585938 185.703125 L 358.761719 185.703125 Z M 346.210938 198.253906 L 358.761719 198.253906 L 358.761719 191.976562 L 346.210938 191.976562 Z M 339.9375 198.253906 L 339.9375 204.527344 L 346.210938 204.527344 L 346.210938 198.253906 Z M 333.660156 191.976562 L 333.660156 198.253906 L 339.9375 198.253906 L 339.9375 191.976562 Z M 327.386719 185.703125 L 327.386719 191.976562 L 333.660156 191.976562 L 333.660156 185.703125 Z M 314.835938 179.429688 L 314.835938 185.703125 L 327.386719 185.703125 L 327.386719 179.429688 Z M 296.011719 173.152344 L 296.011719 179.429688 L 302.285156 179.429688 L 302.285156 185.703125 L 308.5625 185.703125 L 308.5625 179.429688 L 314.835938 179.429688 L 314.835938 173.152344 Z M 264.636719 166.878906 L 264.636719 173.152344 L 270.910156 173.152344 L 270.910156 179.429688 L 277.1875 179.429688 L 277.1875 235.902344 L 252.085938 235.902344 L 252.085938 229.628906 L 245.8125 229.628906 L 245.8125 235.902344 L 233.261719 235.902344 L 233.261719 242.175781 L 245.8125 242.175781 L 245.8125 267.277344 L 214.4375 267.277344 L 214.4375 248.453125 L 208.164062 248.453125 L 208.164062 267.277344 L 189.335938 267.277344 L 189.335938 254.726562 L 183.0625 254.726562 L 183.0625 292.375 L 189.335938 292.375 L 189.335938 304.925781 L 195.613281 304.925781 L 195.613281 286.101562 L 189.335938 286.101562 L 189.335938 273.550781 L 208.164062 273.550781 L 208.164062 292.375 L 214.4375 292.375 L 214.4375 273.550781 L 245.8125 273.550781 L 245.8125 298.652344 L 233.261719 298.652344 L 233.261719 304.925781 L 245.8125 304.925781 L 245.8125 311.203125 L 252.085938 311.203125 L 252.085938 304.925781 L 277.1875 304.925781 L 277.1875 311.203125 L 296.011719 311.203125 L 296.011719 304.925781 L 302.285156 304.925781 L 302.285156 298.652344 L 283.460938 298.652344 L 283.460938 273.550781 L 308.5625 273.550781 L 308.5625 292.375 L 327.386719 292.375 L 327.386719 286.101562 L 314.835938 286.101562 L 314.835938 273.550781 L 333.660156 273.550781 L 333.660156 279.828125 L 346.210938 279.828125 L 346.210938 273.550781 L 352.484375 273.550781 L 352.484375 267.277344 L 365.035156 267.277344 L 365.035156 261.003906 L 352.484375 261.003906 L 352.484375 248.453125 L 346.210938 248.453125 L 346.210938 267.277344 L 314.835938 267.277344 L 314.835938 242.175781 L 327.386719 242.175781 L 327.386719 235.902344 L 314.835938 235.902344 L 314.835938 229.628906 L 308.5625 229.628906 L 308.5625 235.902344 L 283.460938 235.902344 L 283.460938 179.429688 L 289.738281 179.429688 L 289.738281 173.152344 L 296.011719 173.152344 L 296.011719 166.878906 Z M 264.636719 166.878906 " fill-opacity="1" fill-rule="nonzero"/></g></svg>